<svg id="Layer_1" xmlns="http://www.w3.org/2000/svg" width="139.9" height="83.7" viewBox="-329 259.3 139.9 83.7"><style>.st0{fill:#b6b4b0}</style><path class="st0" d="M-319.6 281.6c2.6 1.3 5.9.5 8.4 2s5.2 3.9 5.2 3.9c.7.6.8.7.2.3-.5-.4-1.4 1.2-.8 1.8 0 0 2.8 2.4 1.8 3.4-1.5 2.5-6-.2-6-.2s-2.1-.6-2.9-.4c0 0-.4.1-.9-.4-5.4-1.5-9.9-4.5-13.9-8.9l-.5-1c.3-.8 1.2-1.5 2.1-1.5h4.3c1 .5 2 .5 3 1zM-291.9 264.5c1.8 5.5 2.5 10.9 3 16.3-3 0-6.9 1.5-8.9 0-4-3-3.5-9.4-5-14.4-.5-1.5.5-2.5 1.5-3.5 0 .5 0 1 .5 1 1.5-.5 2-1 3.5-1s1-2 2-2.5c2.4-.8 2.9 2.6 3.4 4.1zM-270.5 266c1.5-1.9 3.9-3 4.5-1 2.2 8.1-7 16.3-7 16.3l-3.5 2-1.5-1.5c-.5-.5-1 0-1 .5-.5-6.4 4.5-11.4 8.5-16.3zM-247.6 280.6c1.6 2.3 3 4.6 1.4 5.8-2.5 1.9-2.5 4.1-6 4.6-1.5 0-4.4 2.1-4.9 2.6-1 1-2.4 1.2-3.9 1.2-2 .5-1.7.6-3.6-.4-1.5-1-3.2-1.5-3.2-3.5-1-5.9 6.4-8.9 10.9-11.9 2.8-1.9 6.8-1.9 9.3 1.6zM-254 318c2.3 1.8 5.2 4.4 5.2 4.4.7.6 1 1 .7.8-.3-.1-.8.9-.5 1.7-3.5 1-6.4-1-9.9-2.5-1-.5-2 .5-2.5 0-3-2.5-6.9-3.5-8.9-6.9-.5-1.5 0-4 1-4.5 6-1.9 10.5 3.6 14.9 7zM-278.1 330.9c.4 1.4 0 3 .5 4.5.5 1 3.5 2 2 2.5-1.5 1.5-3 2.5-4.5 4.5-.5 1-3.5 1-4 0-4.5-5.4-4-12.9-2-18.8 0-.5 1-3 3-2 1.5 1 3.5 1.5 4 3 .5 1.8.5 4.3 1 6.3zM-299.6 327.6c-.4 1.1-.7 1.6-.7 1.6-.4.8-.5 2-.1 2.8 0 0 .3.5-.2 1.5-.5.5-1.4.5-1.4.5-.9 0-2.3-.2-3.2-.4 0 0-4.9-1.1-4.9-3.6-.5-5.4 3-10.9 7.4-13.9 1.5-.5 3.5 1 4 2 1.5 3 .1 6.5-.9 9.5zM-312.5 311.2c-3.8.9-6.6 4.6-9.7 2.4-1.3-.8-2.9-.7-4.2-1.5-.9-.7-1.2-1.3-2.2-1.5-.5-.1-.4-.6-.3-1.1 3.6-4.8 8.9-2.8 14.1-5.2 1.7-.6 3.5-1.4 4.9-.6 1.2 1.3 2.8-.4 3 1.1 0 2-2 3.1-2.8 4.6-1.5-.3-1.7 1.6-2.8 1.8zM-288.7 303.7h2.7l-1.3-3.8zM-276.7 298.8h-1.5v6.9h1.4c1.9 0 3.1-1.5 3.1-3.6 0-1.9-1.3-3.3-3-3.3zM-297.8 298.6h-1.1v3.1h1c.9 0 1.7-.4 1.7-1.6 0-1-.6-1.5-1.6-1.5z"/><path class="st0" d="M-271.1 291.2c-1.5-2-3.5-3.5-5-4-3-1.5-6.4-2-9.4-3-4.5-1.5-8.9-.5-12.4 2.5-7.9 7.4-10.4 20.3-2 27.2 3.5 3.5 8.9 4.2 13.9 5 7.8 1.2 12.8-4.3 12.8-4.3s1.9-.6 3.5-8.6c1.1-4.9 1.6-10.3-1.4-14.8zm-5.2 17.3h-8l-.8-2.3h-4.3l-.8 2.3h-5.2s-2.3-3.8-2.6-4.4h-.6v4.4h-3.2v-12.4h4.9c2.2 0 4.2 1.2 4.2 3.9 0 1.7-.7 2.8-2.1 3.4.2.3 1.2 1.8 2 3.1l3.9-10.4h3.7l3.9 10.6v-10.6h5.2c3.3 0 5.9 2.5 5.9 6.1-.2 3.6-2.6 6.3-6.1 6.3z"/><path class="st0" d="M-267 298l2.5 6.9 2.7-7.2 2.8 7.1 2.4-6.9h1.5l-3.9 10.7-2.8-7.3-2.8 7.3-4-10.6h1.6zM-250.6 297.8c2.7 0 4.8 2.1 4.8 5.2 0 2.9-2.1 5.3-4.7 5.3s-4.8-2.3-4.8-5.2c0-3 2-5.3 4.7-5.3zm-3.2 5.2c0 2 1.4 3.7 3.3 3.7s3.3-1.5 3.3-3.7c0-2-1.3-3.7-3.3-3.7-2-.1-3.3 1.6-3.3 3.7zM-243.3 302.7v5.2h-1.4V298h1.4v1.4c.6-1.1 1.3-1.6 2.3-1.6.3 0 .7.1 1 .2l-.3 1.6s-.6-.2-1-.2c-1.7 0-2 2.2-2 3.3zM-237.5 307.9h-1.4v-12.4h1.4v7l3.4-4.6h1.8l-3.7 4.9 4 5.1h-1.9l-3.6-4.6v4.6z"/><path class="st0" d="M-229 297.8c1.2 0 2.1.7 2.5 1.9l-1.2.6c-.1-.4-.5-1.1-1.4-1.1-.7 0-1.2.5-1.2 1.2 0 .9.7 1.2 1.4 1.6.3.2.5.3.9.5 1.1.6 1.8 1.5 1.8 2.8 0 1.9-1.4 3-3 3-1.3 0-2.3-.7-2.9-2l1.2-.7c.2.4.6 1.3 1.6 1.3s1.6-.6 1.6-1.4c0-.7-.4-1.2-1-1.5-.6-.3-1.1-.6-1.4-.7-1.2-.6-1.6-1.7-1.6-2.6 0-1.8 1.2-2.9 2.7-2.9zM-222 307.9v-12.4h1.4v3.8c.7-1 1.6-1.5 2.7-1.5 1.5 0 3 1.3 3 3v7.1h-1.4v-6.7c0-1.3-.7-2-1.9-2-1.7 0-2.4 1.5-2.4 3.1v5.6h-1.4zM-209.4 297.8c2.6 0 4.2 2.4 4.2 5.5h-7.1c0 1.9 1.1 3.6 3 3.6 1.2 0 2.2-1 2.6-2l1.2.7c-.6 1.3-2.1 2.7-3.9 2.7-2.7 0-4.4-2.5-4.4-5.2.1-2.9 1.8-5.3 4.4-5.3zm-2.8 4.2h5.5c-.1-1.5-1-2.9-2.7-2.9-1.5 0-2.7 1.4-2.8 2.9zM-202.7 302.7v5.2h-1.4V298h1.4v1.4c.6-1.1 1.3-1.6 2.3-1.6.3 0 .7.1 1 .2l-.3 1.6s-.6-.2-1-.2c-1.7 0-2 2.2-2 3.3zM-195.1 297.8c2.6 0 4.2 2.4 4.2 5.5h-7.1c0 1.9 1.1 3.6 3 3.6 1.2 0 2.2-1 2.6-2l1.2.7c-.6 1.3-2.1 2.7-3.9 2.7-2.7 0-4.4-2.5-4.4-5.2.1-2.9 1.8-5.3 4.4-5.3zm-2.8 4.2h5.5c-.1-1.5-1-2.9-2.7-2.9-1.5 0-2.6 1.4-2.8 2.9z"/><g><path class="st0" d="M-234.2 316.5h.7l1.9 5.2h-.7l-.6-1.6h-2l-.6 1.6h-.7l2-5.2zm.4.9l-.8 2.1h1.5l-.7-2.1zM-230.4 316.5h.6v5.2h-.6v-5.2zM-228.3 316.5h.6v5.2h-.6v-5.2zM-225.7 320.1c0 .7.4 1.2 1 1.2.5 0 .8-.3 1-.8l.6.1c-.2.8-.8 1.2-1.6 1.2-1.1 0-1.7-.8-1.7-1.8 0-1.1.5-1.9 1.7-1.9 1.1 0 1.6.8 1.6 1.8v.1l-2.6.1zm2-.5c-.1-.6-.4-1-1-1s-.9.5-1 1h2zM-219.2 318.2h.6v3.5c0 .5-.1 1.6-1.6 1.6-.8 0-1.6-.4-1.6-1.3h.6c0 .6.4.8 1 .8 1 0 1-.7 1-1.2v-.5c-.3.4-.7.6-1.2.6-.6 0-1.6-.3-1.6-1.8 0-1 .5-1.8 1.6-1.8.6 0 1 .2 1.2.6v-.5zm-2.2 1.8c0 .7.4 1.3 1.1 1.3s1.1-.6 1.1-1.3c0-1-.5-1.3-1.1-1.3-.6-.1-1.1.4-1.1 1.3zM-217.1 316.5h.6v2.2c.2-.3.6-.6 1-.6.7 0 1.2.3 1.2 1.3v2.3h-.6v-2.2c0-.6-.3-.8-.7-.8-.6 0-.9.4-.9.9v2.1h-.6v-5.2zM-212.2 320.1c0 .7.4 1.2 1 1.2.5 0 .8-.3 1-.8l.6.1c-.2.8-.8 1.2-1.6 1.2-1.1 0-1.7-.8-1.7-1.8 0-1.1.5-1.9 1.7-1.9 1.1 0 1.6.8 1.6 1.8v.1l-2.6.1zm2-.5c-.1-.6-.4-1-1-1s-.9.5-1 1h2zM-208.2 318.2h.6v.5c.2-.3.6-.6 1-.6.7 0 1.2.3 1.2 1.3v2.3h-.6v-2.2c0-.6-.3-.8-.7-.8-.6 0-.9.4-.9.9v2.1h-.6v-3.5zM-201.8 318.2h.6l-1.5 4.2c-.2.5-.4 1-1 1-.2 0-.4-.1-.5-.1v-.5c.1 0 .2.1.4.1.3 0 .4-.1.6-.5l.2-.7-1.2-3.5h.6l.9 2.6.9-2.6z"/></g><g><path class="st0" d="M-245.7 324.8h2.3c.8 0 1.7.3 1.7 1.5 0 .7-.3 1.3-1.2 1.4l1.4 2.2h-.8l-1.4-2.2h-1.3v2.2h-.7v-5.1zm.6 2.4h1.6c.6 0 1.1-.2 1.1-.9s-.5-.9-1.1-.9h-1.6v1.8zM-239.9 328.3c0 .7.4 1.2 1 1.2.5 0 .8-.3 1-.8l.6.1c-.2.8-.8 1.2-1.6 1.2-1.1 0-1.7-.8-1.7-1.8 0-1.1.5-1.9 1.7-1.9 1.1 0 1.6.8 1.6 1.8v.2h-2.6zm2-.4c-.1-.6-.4-1-1-1s-.9.5-1 1h2zM-233.3 326.5h.6v3.5c0 .5-.1 1.6-1.6 1.6-.8 0-1.6-.4-1.6-1.3h.6c0 .6.4.8 1 .8 1 0 1-.7 1-1.2v-.5c-.3.4-.7.6-1.2.6-.6 0-1.6-.3-1.6-1.8 0-1 .5-1.8 1.6-1.8.6 0 1 .2 1.2.6v-.5zm-2.2 1.7c0 .7.4 1.3 1.1 1.3.7 0 1.1-.6 1.1-1.3 0-1-.5-1.3-1.1-1.3-.6 0-1.1.4-1.1 1.3zM-231.2 325.5h.6v-.7h-.6v.7zm0 4.5h.6v-3.5h-.6v3.5zM-227.6 326.4c1.1 0 1.7.8 1.7 1.8 0 1.1-.6 1.8-1.7 1.8s-1.7-.8-1.7-1.8.7-1.8 1.7-1.8zm0 3.2c.9 0 1.1-.8 1.1-1.4s-.2-1.4-1.1-1.4c-.9 0-1.1.8-1.1 1.4.1.6.3 1.4 1.1 1.4zM-224.5 326.5h.6v.5c.2-.3.6-.6 1-.6.7 0 1.2.3 1.2 1.3v2.3h-.6v-2.2c0-.6-.3-.8-.7-.8-.6 0-.9.4-.9.9v2.1h-.6v-3.5zM-218.1 327.6c0-.5-.2-.7-.8-.7-.5 0-.7.2-.7.7h-.6c.1-.8.5-1.1 1.3-1.1.6 0 1.4.2 1.4 1.1v1.6c0 .3.1.4.3.4h.2v.5c-.1 0-.2.1-.4.1-.4 0-.5-.2-.6-.5-.3.4-.8.5-1.2.5-.6 0-1.1-.4-1.1-1 0-1 .9-1.1 2.3-1.2v-.4h-.1zm0 .7c-1 .1-1.7.2-1.7.8 0 .4.4.5.7.5.6 0 1-.3 1-.9v-.4zM-215.8 324.8h.6v5.2h-.6v-5.2zM-209.5 324.8h.7l1.9 5.2h-.7l-.6-1.6h-2l-.6 1.6h-.7l2-5.2zm.4.8l-.8 2.1h1.5l-.7-2.1zM-205.3 328.7c0 .6.5.8 1 .8.3 0 .8-.1.8-.6 0-.9-2.3-.2-2.3-1.6 0-.7.7-1 1.3-1 .5 0 1.5.2 1.5 1.1l-.6.1c0-.5-.4-.8-.9-.8-.3 0-.7.1-.7.5 0 .8 2.3.2 2.3 1.6 0 .7-.8 1.1-1.5 1.1-.8 0-1.5-.3-1.5-1.2h.6zM-201.1 328.7c0 .6.5.8 1 .8.3 0 .8-.1.8-.6 0-.9-2.3-.2-2.3-1.6 0-.7.7-1 1.3-1 .5 0 1.5.2 1.5 1.1l-.6.1c0-.5-.4-.8-.9-.8-.3 0-.7.1-.7.5 0 .8 2.3.2 2.3 1.6 0 .7-.7 1.1-1.5 1.1s-1.5-.3-1.5-1.2h.6zM-197 328.3c0 .7.4 1.2 1 1.2.5 0 .8-.3 1-.8l.6.1c-.2.8-.8 1.2-1.6 1.2-1.1 0-1.7-.8-1.7-1.8 0-1.1.5-1.9 1.7-1.9 1.1 0 1.6.8 1.6 1.8v.2h-2.6zm2-.4c-.1-.6-.4-1-1-1s-.9.5-1 1h2zM-193.4 326.5h.6v-1.1h.6v1.1h.6v.5h-.6v2.2c0 .2 0 .3.2.3.1 0 .2 0 .4-.1v.5c-.2 0-.4.1-.6.1-.6 0-.6-.3-.6-.7v-2.4h-.6v-.4z"/></g><g><path class="st0" d="M-231.5 333.6h2c1.6 0 2.3 1.1 2.3 2.6s-.7 2.6-2.3 2.6h-2v-5.2zm.7 4.6h1.2c1.2 0 1.7-.8 1.7-2s-.5-2-1.6-2h-1.2l-.1 4zM-225.8 333.6h.6v.7h-.6v-.7zm0 1.7h.6v3.5h-.6v-3.5zM-223.2 337.6c0 .6.5.8 1 .8.3 0 .8-.1.8-.6 0-.9-2.3-.2-2.3-1.6 0-.7.7-1 1.3-1 .5 0 1.5.2 1.5 1.1l-.6.1c0-.5-.4-.7-.9-.7-.3 0-.7.1-.7.5 0 .8 2.3.2 2.3 1.6 0 .7-.7 1.1-1.5 1.1s-1.5-.3-1.5-1.2l.6-.1zM-219.9 335.3h.6v-1.1h.6v1.1h.6v.5h-.6v2.2c0 .2 0 .3.2.3.1 0 .2 0 .4-.1v.5c-.2 0-.4.1-.6.1-.6 0-.6-.3-.6-.7v-2.4h-.6v-.4zM-216.9 335.3h.6v.6c.3-.5.6-.6 1.2-.6v.7h-.4c-.6 0-.8.5-.8.9v2h-.6v-3.6zM-213.8 333.6h.6v.7h-.6v-.7zm0 1.7h.6v3.5h-.6v-3.5zM-209.2 336.5c-.1-.5-.4-.8-.9-.8-.8 0-1.1.7-1.1 1.4s.3 1.4 1.1 1.4c.6 0 1-.3 1-.9l.6.1c-.1.8-.7 1.4-1.6 1.4-1.1 0-1.7-.7-1.7-1.8s.6-1.9 1.7-1.9c.7 0 1.4.4 1.6 1.2l-.7-.1zM-207.7 335.3h.6v-1.1h.6v1.1h.6v.5h-.6v2.2c0 .2 0 .3.2.3.1 0 .2 0 .4-.1v.5c-.2 0-.4.1-.6.1-.6 0-.6-.3-.6-.7v-2.4h-.6v-.4z"/></g></svg>