<?xml version="1.0" encoding="UTF-8" standalone="no"?>
<svg
   version="1.1"
   id="svg2"
   xml:space="preserve"
   width="256.45364"
   height="209.24506"
   viewBox="0 0 256.45365 209.24505"
   sodipodi:docname="OCPL-CMYK.svg"
   inkscape:version="1.1.2 (b8e25be833, 2022-02-05)"
   xmlns:inkscape="http://www.inkscape.org/namespaces/inkscape"
   xmlns:sodipodi="http://sodipodi.sourceforge.net/DTD/sodipodi-0.dtd"
   xmlns="http://www.w3.org/2000/svg"
   xmlns:svg="http://www.w3.org/2000/svg"
   xmlns:rdf="http://www.w3.org/1999/02/22-rdf-syntax-ns#"
   xmlns:cc="http://creativecommons.org/ns#"
   xmlns:dc="http://purl.org/dc/elements/1.1/"><metadata
     id="metadata8"><rdf:RDF><cc:Work
         rdf:about=""><dc:format>image/svg+xml</dc:format><dc:type
           rdf:resource="http://purl.org/dc/dcmitype/StillImage" /></cc:Work></rdf:RDF></metadata><defs
     id="defs6" /><sodipodi:namedview
     pagecolor="#ffffff"
     bordercolor="#666666"
     borderopacity="1"
     objecttolerance="10"
     gridtolerance="10"
     guidetolerance="10"
     inkscape:pageopacity="0"
     inkscape:pageshadow="2"
     inkscape:window-width="2560"
     inkscape:window-height="1346"
     id="namedview4"
     inkscape:pagecheckerboard="0"
     showgrid="false"
     inkscape:zoom="2.0146153"
     inkscape:cx="272.26041"
     inkscape:cy="118.88126"
     inkscape:window-x="-11"
     inkscape:window-y="-11"
     inkscape:window-maximized="1"
     inkscape:current-layer="g10" /><g
     id="g10"
     inkscape:groupmode="layer"
     inkscape:label="ink_ext_XXXXXX"
     transform="matrix(1.3333333,0,0,-1.3333333,1.0102113e-5,337.75866)"><g
       id="g12"
       transform="scale(0.1)"><path
         d="m 869.863,1591.41 c 0,5.55 0.575,10.97 1.532,16.26 h -9.477 c -125.121,0 -179.855,275.53 -418.371,275.53 -149.871,0 -230.68,-110.22 -230.68,-249.9 0,-93.54 45.68,-190.95 149.946,-190.95 53.703,0 86.757,39.71 86.757,96.09 0,56.38 -36.574,91.71 -81.273,91.71 -48.43,0 -81.149,-18.62 -92.871,-75.01 -32.59,11.52 -45.621,46.11 -45.621,78.16 0,66.63 44.32,121.73 116.008,121.73 131.625,0 161.605,-171.7 263.253,-171.7 H 870.27 c -0.231,2.68 -0.407,5.34 -0.407,8.08"
         style="fill:#b8bc41;fill-opacity:1;fill-rule:evenodd;stroke:none"
         id="path14" /><path
         d="M 31.6094,1528.68 H 166.563 v -404.02 h 82.07 V 1023.57 H 31.6094"
         style="fill:#d06012;fill-opacity:1;fill-rule:evenodd;stroke:none"
         id="path16" /><path
         d="m 356.801,1397.9 c -26.473,0 -51.004,7.85 -71.27,21.19 v -395.52 h 133.36 v 390.07 c -18.328,-9.97 -39.489,-15.74 -62.09,-15.74"
         style="fill:#d06012;fill-opacity:1;fill-rule:nonzero;stroke:none"
         id="path18" /><path
         d="m 1779.49,1437.67 h 117.63 l -37.15,-300.64 c -5.89,-47.6 -10.8,-80.06 -14.77,-97.38 -3.96,-17.33 -10.57,-31.63 -19.79,-42.92 -9.23,-11.261 -22.05,-19.558 -38.46,-24.878 -16.4,-5.332 -42.62,-8 -78.65,-8 h -78.83 v 66.398 c 20.18,0 33.2,0.99 38.99,2.96 5.8,2 8.72,6.44 8.72,13.32 0,3.33 -2.7,17.84 -8.06,43.54 l -71.2,347.6 h 118.02 l 42.72,-280.6"
         style="fill:#d06012;fill-opacity:1;fill-rule:evenodd;stroke:none"
         id="path20" /><path
         d="m 1377.21,1437.67 h 130.01 l -5.16,-54.63 c 18.88,39.13 46.25,59.85 82.06,62.16 v -146.24 c -23.81,0 -41.3,-3.15 -52.44,-9.4 -11.16,-6.27 -18.03,-14.98 -20.6,-26.16 -2.59,-11.16 -3.86,-36.9 -3.86,-77.21 V 1022.1 h -130.01"
         style="fill:#d06012;fill-opacity:1;fill-rule:evenodd;stroke:none"
         id="path22" /><path
         d="m 1161.3,1320.24 v -43.53 h -121.94 v 27.87 c 0,32.15 3.8,56.95 11.41,74.37 7.62,17.45 22.91,32.84 45.86,46.2 22.95,13.37 52.77,20.05 89.46,20.05 43.98,0 77.12,-7.57 99.44,-22.7 22.31,-15.15 35.72,-33.73 40.22,-55.74 4.5,-22.03 6.75,-67.39 6.75,-136.09 V 1022.1 h -126.45 v 37.03 c -7.95,-14.83 -18.19,-25.98 -30.75,-33.42 -12.54,-7.42 -27.5,-11.12 -44.87,-11.12 -22.75,0 -43.61,6.21 -62.6,18.62 -18.99,12.44 -28.47,39.63 -28.47,81.58 v 34.15 c 0,31.11 5.03,52.3 15.12,63.59 10.08,11.26 35.07,24.41 74.97,39.43 42.7,16.3 65.54,27.26 68.54,32.89 3.02,5.64 4.5,17.12 4.5,34.45 0,21.73 -1.65,35.87 -4.97,42.45 -3.33,6.55 -8.86,9.86 -16.57,9.86 -8.8,0 -14.27,-2.77 -16.42,-8.31 -2.15,-5.53 -3.23,-19.89 -3.23,-43.06 z m 41.19,-186.02 v 85.5 c -20.8,-14.84 -32.86,-27.26 -36.19,-37.27 -3.33,-10.03 -5,-24.43 -5,-43.22 0,-21.5 1.46,-35.39 4.36,-41.66 2.89,-6.25 8.63,-9.4 17.22,-9.4 8.15,0 13.45,2.47 15.92,7.39 2.47,4.89 3.69,17.77 3.69,38.66"
         style="fill:#d06012;fill-opacity:1;fill-rule:evenodd;stroke:none"
         id="path24" /><path
         d="m 809.293,1437.67 h 130.004 l -5.149,-54.63 c 18.879,39.13 46.235,59.85 82.062,62.16 v -146.24 c -23.815,0 -41.304,-3.15 -52.456,-9.4 -11.156,-6.27 -18.027,-14.98 -20.59,-26.16 -2.582,-11.16 -3.867,-36.9 -3.867,-77.21 V 1022.1 H 809.293"
         style="fill:#d06012;fill-opacity:1;fill-rule:evenodd;stroke:none"
         id="path26" /><path
         d="M 466.934,1529.11 H 596.938 V 1409.1 c 10.722,12.15 22.691,21.19 35.875,27.15 13.199,5.96 27.519,8.95 42.968,8.95 17.805,0 33.242,-2.72 46.332,-8.15 13.082,-5.43 23.059,-13.05 29.934,-22.85 6.859,-9.83 10.996,-19.42 12.383,-28.82 1.398,-9.39 2.093,-29.43 2.093,-60.12 v -187.28 c 0,-30.48 -2.093,-53.19 -6.269,-68.12 -4.191,-14.92 -14.008,-27.87 -29.441,-38.84 -15.458,-10.96 -33.797,-16.43 -55.032,-16.43 -15.238,0 -29.441,3.23 -42.64,9.73 -13.2,6.49 -25.258,16.22 -36.203,29.19 l -8.364,-31.41 H 466.934 Z M 636.52,1144.55 v 175.06 c 0,21.49 -1.387,35.56 -4.196,42.14 -2.781,6.57 -8.246,9.86 -16.402,9.86 -7.93,0 -13.09,-2.88 -15.449,-8.61 -2.352,-5.75 -3.535,-20.21 -3.535,-43.39 v -179.12 c 0,-22.35 1.339,-36.65 4.023,-42.92 2.684,-6.25 7.984,-9.4 15.93,-9.4 8.144,0 13.461,3.26 15.922,9.73 2.476,6.47 3.707,22.01 3.707,46.65"
         style="fill:#d06012;fill-opacity:1;fill-rule:evenodd;stroke:none"
         id="path28" /><path
         d="m 2.27344,1771.44 c 4.71875,20.2 15.18356,35.49 31.37496,45.87 16.1954,10.4 34.1289,13.3 53.7969,8.7 19.6797,-4.61 34.3677,-15.19 44.0977,-31.76 9.727,-16.56 12.168,-35.19 7.348,-55.82 -4.61,-19.71 -14.891,-34.61 -30.848,-44.72 -15.961,-10.12 -33.6446,-12.91 -53.0664,-8.37 -19.9297,4.66 -34.8789,15.12 -44.8399,31.38 -9.960919,16.28 -12.57811,34.52 -7.86326,54.72 z m 18.32036,-3.5 c -3.5,-14.96 -1.586,-28.38 5.7109,-40.24 7.3047,-11.86 18.3594,-19.53 33.2031,-22.98 14.3789,-3.37 27.4805,-1.34 39.3008,6.11 11.8004,7.42 19.3984,18.39 22.7934,32.92 3.418,14.59 1.386,27.89 -6.082,39.94 -7.454,12.02 -18.4497,19.73 -32.9653,23.12 -14.1328,3.31 -27.1641,1.21 -39.0859,-6.29 -11.9375,-7.5 -19.5547,-18.37 -22.875,-32.58 z m 16.0742,115.17 12.8086,31.11 c 5.1718,12.55 12.4531,21.21 21.8437,25.98 9.3789,4.77 19.4805,4.91 30.3167,0.46 7.371,-3.04 12.996,-7.48 16.894,-13.3 3.891,-5.84 5.785,-12.67 5.657,-20.52 4.292,2.87 9.519,5.26 15.679,7.16 6.156,1.89 16.367,3.93 30.617,6.11 8.973,1.36 15.809,2.59 20.516,3.72 l 7.219,1.73 -87.321,116.43 6.829,11.66 149.32,-17.85 -9.957,-16.97 -44.082,5.13 -29.004,-49.4 26.516,-35.03 -8.176,-13.93 -8.274,-20.09 -10.578,-1.97 c -0.371,-0.06 -1.031,-0.21 -1.984,-0.43 l -6.41,-1.42 -11.528,-1.69 -12.332,-1.88 c -6.722,-1.52 -12.234,-3.18 -16.574,-4.97 -4.336,-1.78 -7.687,-3.63 -10.062,-5.53 -2.372,-1.89 -4.754,-5.77 -7.153,-11.57 l -1.906,-4.63 55.148,-22.7 -7.324,-17.78 z m 24.9375,16.75 -2.1992,-5.33 40,-16.46 2.7817,6.75 c 3.707,9 5.468,15.51 5.273,19.5 -0.191,4 -1.492,7.58 -3.906,10.76 -2.399,3.17 -5.637,5.59 -9.6839,7.25 -3.9844,1.65 -8.0234,2.1 -12.1172,1.36 -4.0937,-0.75 -7.5742,-2.71 -10.4609,-5.94 -2.8711,-3.21 -6.1094,-9.18 -9.6875,-17.89 z m 111.2075,90.12 21.132,36 -53.757,6.44 z m 145.191,155.48 -81.899,67.96 11.661,14.06 105.437,-87.49 -10.558,-12.73 -138.536,-1.7 81.211,-67.39 -11.543,-13.9 -105.437,87.5 9.945,11.98 z m 77.039,97.78 -11.316,13.3 34.339,29.21 37.618,-44.23 c -7.848,-16.29 -17.973,-29.72 -30.371,-40.25 -16.93,-14.4 -34.754,-20.88 -53.465,-19.41 -18.7,1.47 -34.352,9.61 -46.938,24.4 -13.25,15.6 -19.035,33.03 -17.355,52.33 1.679,19.27 10.429,35.64 26.246,49.09 5.762,4.9 11.765,8.91 18.019,12.05 6.262,3.12 14.782,6.36 25.567,9.7 l 12.957,-15.24 c -18.34,-3.17 -33.524,-9.84 -45.52,-20.06 -11.179,-9.5 -17.297,-21.4 -18.347,-35.69 -1.055,-14.29 3.218,-27.08 12.843,-38.4 10.071,-11.84 22.145,-18.27 36.203,-19.27 14.055,-1 27.122,3.62 39.168,13.88 5.868,4.98 11.711,12.3 17.528,21.98 l 1.008,1.62 -18.5,21.75 z m 86.445,3.91 -71.98,116.37 64.738,40.03 9.188,-14.85 -48.391,-29.92 21.988,-35.54 46.746,28.92 9.231,-14.93 -46.754,-28.93 22.394,-36.18 49.942,30.89 9.187,-14.85 z m 273.16,157.4 6.547,-20.56 c -11.054,-11.76 -25.371,-20.43 -42.968,-26.03 -14.282,-4.54 -27.329,-5.47 -39.145,-2.77 -11.816,2.68 -22.266,8.24 -31.332,16.67 -9.078,8.44 -15.508,18.63 -19.316,30.6 -6.051,19.01 -4.493,37.09 4.652,54.28 9.156,17.19 23.477,28.87 42.953,35.09 13.438,4.26 29.504,5.43 48.207,3.5 l 6.395,-20.09 c -17.731,3.95 -33.746,3.67 -48.036,-0.88 -14.652,-4.67 -25.308,-13.26 -31.984,-25.77 -6.683,-12.53 -7.754,-25.9 -3.234,-40.1 4.554,-14.33 13.074,-24.58 25.539,-30.77 12.457,-6.2 26.101,-6.93 40.941,-2.21 15.508,4.94 29.106,14.62 40.781,29.04 z m 74.665,120.49 c 20.558,2.77 38.578,-1.56 54.042,-13.01 15.461,-11.44 24.536,-27.17 27.235,-47.19 2.695,-20.03 -1.973,-37.53 -14.004,-52.51 -12.035,-14.98 -28.563,-23.89 -49.559,-26.7 -20.054,-2.72 -37.656,1.6 -52.781,12.92 -15.109,11.33 -24.012,26.86 -26.68,46.63 -2.722,20.28 1.743,37.96 13.411,53.07 11.66,15.09 27.773,24.02 48.336,26.79 z m 3.25,-18.36 c -15.223,-2.05 -27.09,-8.6 -35.575,-19.64 -8.508,-11.03 -11.738,-24.11 -9.691,-39.2 1.973,-14.65 8.523,-26.17 19.668,-34.57 11.14,-8.39 24.105,-11.59 38.894,-9.6 14.844,1.99 26.551,8.63 35.153,19.88 8.593,11.25 11.894,24.26 9.918,39.03 -1.942,14.39 -8.547,25.82 -19.793,34.3 -11.254,8.48 -24.11,11.75 -38.574,9.8 z m 205.217,-55.61 3.57,77.7 19.28,-0.89 -3.57,-77.69 c -0.48,-10.53 -1.59,-18.43 -3.33,-23.71 -1.77,-5.28 -3.83,-9.65 -6.19,-13.12 -2.38,-3.45 -5.22,-6.51 -8.55,-9.18 -11.08,-8.85 -25.18,-12.88 -42.318,-12.09 -17.492,0.8 -31.289,6.09 -41.422,15.84 -3.066,3.04 -5.637,6.37 -7.676,10.03 -2.047,3.67 -3.668,8.11 -4.875,13.33 -1.195,5.23 -1.547,13.37 -1.043,24.4 l 3.574,77.5 19.286,-0.89 -3.563,-77.7 c -0.594,-12.86 0.434,-21.87 3.078,-27.04 2.653,-5.16 6.86,-9.39 12.617,-12.7 5.735,-3.31 12.622,-5.15 20.618,-5.52 11.384,-0.52 20.824,2.09 28.264,7.83 3.92,3.1 6.82,6.83 8.69,11.19 1.87,4.37 3.04,11.93 3.56,22.71 z m 152.09,-56.32 22.96,103.91 17.82,-3.94 -29.56,-133.78 -16.13,3.57 -64.91,122.39 -22.75,-103.03 -17.64,3.9 29.56,133.78 15.21,-3.37 z m 69.72,72.2 6.44,16.24 104.26,-41.33 -6.43,-16.24 -43.51,17.26 -44.13,-111.33 -17.94,7.12 44.1,111.32 z m 157.07,-104.05 55.6,21.65 19.98,-12.05 -75.8,-29.66 -37.41,-62.07 -16.9,10.17 37.43,62.07 -9.14,80.87 19.87,-11.98 z m 107,-188.33 -14.02,13.3 94.57,99.44 30.85,-29.34 c 9.29,-8.83 14.25,-18.42 14.93,-28.8 0.65,-10.37 -3.13,-19.87 -11.33,-28.49 -5.49,-5.79 -11.76,-9.56 -18.85,-11.31 -7.07,-1.77 -13.99,-1.31 -20.84,1.35 -6.85,2.67 -14.86,8.37 -24.05,17.12 l -10.32,9.79 z m 96.93,73.07 -14.43,13.71 -29.53,-31.06 15.27,-14.5 c 5.65,-5.39 11.33,-8.17 16.98,-8.37 5.65,-0.19 10.89,2.26 15.72,7.31 9.68,10.2 8.34,21.16 -4.01,32.91 z m 66.23,-166.23 60.96,48.31 11.98,-15.14 -60.94,-48.32 c -8.26,-6.54 -14.94,-10.88 -20.1,-13.03 -5.12,-2.15 -9.78,-3.46 -13.93,-3.94 -4.18,-0.49 -8.35,-0.34 -12.54,0.42 -13.94,2.53 -26.25,10.52 -36.92,23.98 -10.85,13.7 -15.93,27.58 -15.23,41.63 0.27,4.31 1.11,8.42 2.53,12.37 1.42,3.95 3.7,8.09 6.84,12.43 3.17,4.34 9.07,9.94 17.74,16.8 l 60.78,48.2 12,-15.14 -60.94,-48.31 c -10.09,-8.01 -16.22,-14.71 -18.38,-20.09 -2.15,-5.39 -2.58,-11.34 -1.31,-17.85 1.27,-6.51 4.42,-12.89 9.39,-19.17 7.08,-8.94 15.23,-14.33 24.46,-16.18 4.92,-0.93 9.62,-0.67 14.14,0.79 4.53,1.46 11.02,5.54 19.47,12.24 z m 1.6,-112.89 -22.81,39.32 118.53,68.73 17.63,-30.42 c 5.57,-9.59 8.6,-17.83 9.08,-24.74 0.5,-6.9 -0.75,-13.1 -3.71,-18.61 -2.98,-5.5 -7.49,-10 -13.55,-13.5 -11.63,-6.77 -23.41,-5.7 -35.29,3.19 3.29,-9.43 3.62,-18.24 1.05,-26.45 -2.57,-8.2 -7.68,-14.51 -15.31,-18.94 -6.07,-3.51 -12.36,-5.11 -18.87,-4.81 -6.52,0.28 -12.99,2.51 -19.4,6.67 -6.44,4.16 -12.21,10.69 -17.35,19.56 z m 48.55,37.7 -9.03,15.54 -37.59,-21.79 9.5,-16.38 c 5.28,-9.08 9.57,-14.84 12.9,-17.24 3.31,-2.41 7.07,-3.71 11.29,-3.91 4.19,-0.19 8.02,0.72 11.53,2.76 3.64,2.1 6.33,5.06 8.14,8.88 1.79,3.81 2.3,8.06 1.56,12.73 -0.76,4.69 -3.51,11.15 -8.3,19.41 z m -16.77,-97.29 126.09,53.62 7.52,-17.69 -109.67,-46.63 23.68,-55.64 -16.42,-6.98 z m 66.77,127.96 -8.3,14.31 -35.62,-20.68 6.41,-11.05 c 5.14,-8.87 10.53,-14.18 16.14,-15.92 5.63,-1.74 11.18,-1.02 16.65,2.17 11.38,6.58 12.95,16.98 4.72,31.17 z m -31.05,-217.71 130.16,42.77 6,-18.27 -130.16,-42.77 z m 70.97,-151.95 -21.11,-4.48 c -10.6,12.15 -17.82,27.25 -21.66,45.32 -3.13,14.65 -2.76,27.75 1.09,39.24 3.84,11.49 10.42,21.33 19.71,29.51 9.29,8.2 20.06,13.61 32.35,16.22 19.5,4.13 37.36,0.8 53.56,-10.01 16.2,-10.79 26.41,-26.2 30.67,-46.2 2.91,-13.8 2.48,-29.89 -1.28,-48.3 l -20.64,-4.38 c 5.7,17.24 7,33.21 3.89,47.87 -3.21,15.04 -10.71,26.51 -22.5,34.38 -11.8,7.87 -25,10.28 -39.57,7.17 -14.72,-3.12 -25.76,-10.58 -33.15,-22.36 -7.4,-11.8 -9.48,-25.3 -6.25,-40.53 3.39,-15.91 11.69,-30.4 24.89,-43.45"
         style="fill:#656a6f;fill-opacity:1;fill-rule:evenodd;stroke:none"
         id="path30" /><path
         d="m 903.395,1660.94 -5.668,5.53 c -88.442,86.08 73.019,318.52 -95.547,482.62 -105.934,103.12 -243.114,80.8 -344.586,-17.93 -67.953,-66.13 -95.258,-172.07 -24.879,-214.39 43.16,-25.96 96.047,11.62 95.039,52.54 0.512,3.13 0.785,6.31 0.781,9.51 0,15.49 -6.156,30.35 -17.105,41.31 -10.957,10.95 -25.817,17.11 -41.297,17.11 -7.922,0 -15.664,-1.61 -22.809,-4.64 l -2.304,0.26 c -14.649,30.57 1.269,64 24.546,86.64 48.414,47.11 119.243,39.02 169.907,-10.31 93.043,-90.57 -10.008,-216.03 61.843,-285.98 l 185.582,-180.67 c 4.633,6.87 10.215,13.04 16.497,18.4"
         style="fill:#96b36f;fill-opacity:1;fill-rule:evenodd;stroke:none"
         id="path32" /><path
         d="m 1008.2,2318.21 c -62.223,-4.8 -166.122,-36.67 -190.481,-135.34 -4.207,-17.05 23.773,25.24 65.855,46.53 39.235,27.62 79.254,27.9 111.906,23.91 33.55,-4.11 76.66,-33.09 80.87,-84.41 10.49,-127.7 -127.998,-134.52 -127.998,-233.46 v -253.88 c 4.593,0.72 9.277,1.19 14.074,1.19 3.711,0 7.344,-0.29 10.933,-0.72 v 7.34 c 0,121.76 279.651,166.57 279.651,398.69 0,145.88 -111.8,240.4 -244.81,230.15"
         style="fill:#8dd2a2;fill-opacity:1;fill-rule:evenodd;stroke:none"
         id="path34" /><path
         d="m 1547.05,2036.72 c -39.13,39.12 -92.21,61.11 -147.55,61.11 -36.94,0 -72.84,-9.79 -104.29,-27.93 2.63,-30.37 37.53,-125.55 -94.92,-229.13 l -22.42,-17.85 -0.1,0.48 c -109.12,-91.22 -148.44,-150.93 -155.77,-162.95 6.42,-5.57 12.06,-12 16.72,-19.16 l 7.85,7.67 c 72.73,70.81 254.68,-13.28 404.63,38.04 35.97,9.21 69.15,27.92 95.85,54.62 39.14,39.13 61.12,92.2 61.12,147.55 0,55.34 -21.98,108.41 -61.12,147.55"
         style="fill:#709dd9;fill-opacity:1;fill-rule:evenodd;stroke:none"
         id="path36" /><path
         d="m 1566.29,1680.22 c -17.24,-5.18 11.76,-79.48 -253.57,-71.3 l -261.67,3.31 c 1.52,-6.6 2.41,-13.44 2.41,-20.51 0,-2.4 -0.16,-4.8 -0.35,-7.16 h 6.78 c 125.11,0 274.31,-40.45 439.22,-77.44 115.42,-25.9 179.73,5.92 189.93,71.2 10.8,69.3 -47.69,124.45 -122.75,101.9"
         style="fill:#2d7ac8;fill-opacity:1;fill-rule:evenodd;stroke:none"
         id="path38" /><g
         id="g42"
         transform="scale(10)" /><g
         id="g50"
         transform="scale(10)" /><g
         id="g58"
         transform="scale(10)" /><g
         id="g66"
         transform="scale(10)" /><g
         id="g74"
         transform="scale(10)" /><g
         id="g82"
         transform="scale(10)" /><g
         id="g90"
         transform="scale(10)" /></g></g></svg>
