<?xml version="1.0" encoding="utf-8"?>
<!-- Generator: Adobe Illustrator 19.1.1, SVG Export Plug-In . SVG Version: 6.00 Build 0)  -->
<svg version="1.1" id="Layer_1" xmlns="http://www.w3.org/2000/svg" xmlns:xlink="http://www.w3.org/1999/xlink" x="0px" y="0px"
   viewBox="0 0 95.5 88.2" style="enable-background:new 0 0 95.5 88.2;" xml:space="preserve">
<style type="text/css">
  .st0{fill:none;stroke:#FFFFFF;}
  .st1{fill:#FFFFFF;}
</style>
<circle class="st0" cx="45.1" cy="43.9" r="39.6"/>
<path class="st1" d="M42.9,44.1c0,0-9.9-5.7-18.2-10.5c-1.5,3.1-2.4,6.5-2.4,10.2c0,12.1,9.5,22,21.4,22.7V44.6
  C43.7,44.6,42.9,44.1,42.9,44.1"/>
<path class="st1" d="M65.5,33.8c-10.9,6.1-17.9,10.1-18.3,10.4l-0.8,0.4v21.9c11.9-0.7,21.4-10.6,21.4-22.7
  C67.9,40.2,67,36.8,65.5,33.8"/>
<path class="st1" d="M15.7,35.2c0.7,0,1.2,0.5,1.2,1.2c0,0.7-0.5,1.2-1.2,1.2c-0.7,0-1.2-0.5-1.2-1.2C14.5,35.7,15.1,35.2,15.7,35.2
  "/>
<path class="st1" d="M74.1,35.2c0.7,0,1.2,0.5,1.2,1.2c0,0.7-0.5,1.2-1.2,1.2c-0.7,0-1.2-0.5-1.2-1.2C72.9,35.7,73.5,35.2,74.1,35.2
  "/>
<path class="st1" d="M18.6,25.8c-0.8-0.2-1.6,0-2,0.8c-0.6,1,0,2.2,1.8,3.3c1.8,1.2,3.1,1.2,3.8,0c0.4-0.7,0.4-1.3-0.2-2.3l1.2-1.2
  c1.1,1.3,1.2,2.8,0.3,4.2c-1.2,2-3.4,2.3-6,0.7c-2.6-1.6-3.4-3.6-2.2-5.6c0.9-1.5,2.1-2,3.8-1.5L18.6,25.8z"/>
<path class="st1" d="M15.2,25.7c-1.3,2.1-0.5,4.2,2.2,5.8c1.5,0.9,2.8,1.2,4,0.9c0.9-0.2,1.6-0.8,2.1-1.7c0.9-1.5,0.8-3-0.3-4.3
  l-0.1-0.1l-1.3,1.3l0,0.1c0.7,1,0.6,1.6,0.2,2.2c-0.2,0.4-0.6,0.7-1,0.8c-0.7,0.2-1.6-0.1-2.7-0.8c-1.1-0.7-1.8-1.4-2-2.1
  c-0.1-0.4,0-0.8,0.2-1.1c0.4-0.7,1.1-0.9,1.9-0.7l0.1,0l0.6-1.7l-0.1,0C17.4,23.7,16.2,24.2,15.2,25.7 M17.5,31.3
  c-2.5-1.5-3.3-3.5-2.1-5.5c0.9-1.4,2-1.9,3.6-1.5c-0.1,0.2-0.4,1.3-0.5,1.4c-0.9-0.2-1.6,0.1-2,0.8c-0.2,0.4-0.3,0.8-0.2,1.2
  c0.2,0.7,0.9,1.5,2,2.2c1.2,0.7,2.1,1,2.9,0.8c0.5-0.1,0.8-0.4,1.1-0.8c0.2-0.3,0.3-0.6,0.3-0.9c0-0.4-0.2-0.8-0.5-1.3
  c0.1-0.1,1-0.9,1.1-1.1c0.5,0.7,0.8,1.4,0.8,2.1c0,0.6-0.2,1.3-0.6,1.9c-0.5,0.9-1.2,1.4-2,1.6C20.3,32.5,18.9,32.2,17.5,31.3"/>
<polygon class="st1" points="26.8,25.9 21.1,18.5 22.5,17.4 24.8,20.3 27.6,18.2 25.4,15.2 26.8,14.1 32.4,21.5 31,22.6 28.6,19.4 
  25.8,21.6 28.2,24.8 "/>
<path class="st1" d="M26.7,14.1l-1.5,1.1c0,0,2.1,2.8,2.2,2.9c-0.1,0.1-2.6,2-2.7,2.1c-0.1-0.1-2.2-2.9-2.2-2.9L21,18.5l5.8,7.5
  l1.5-1.2c0,0-2.3-3-2.4-3.2c0.1-0.1,2.6-2,2.7-2.1c0.1,0.1,2.4,3.2,2.4,3.2l1.6-1.2L26.7,14.1L26.7,14.1z M26.8,14.3
  c0.1,0.1,5.4,7.1,5.5,7.2c-0.1,0.1-1.1,0.9-1.3,1c-0.1-0.1-2.4-3.2-2.4-3.2l-3,2.3c0,0,2.3,3,2.4,3.2c-0.1,0.1-1.1,0.9-1.3,1
  c-0.1-0.1-5.4-7.1-5.5-7.2c0.1-0.1,1.1-0.9,1.3-1c0.1,0.1,2.2,2.9,2.2,2.9l3-2.3c0,0-2.1-2.8-2.3-2.9C25.6,15.1,26.7,14.4,26.8,14.3
  "/>
<polygon class="st1" points="35.6,20.3 32.4,11.5 34.1,10.9 37.2,19.6 "/>
<path class="st1" d="M34,10.8l-1.8,0.6l3.2,8.9l1.8-0.7L34,10.8L34,10.8z M34,11c0.1,0.2,3,8.4,3.1,8.6c-0.2,0.1-1.3,0.5-1.5,0.5
  c-0.1-0.2-3.1-8.4-3.1-8.6C32.7,11.5,33.9,11.1,34,11"/>
<path class="st1" d="M44.7,11.8c-0.3-0.8-0.9-1.3-1.8-1.2c-1.2,0.1-1.8,1.2-1.7,3.4c0.1,2.2,0.8,3.2,2.2,3.1
  c0.8-0.1,1.3-0.4,1.7-1.5l1.7,0.3c-0.4,1.6-1.6,2.5-3.3,2.7c-2.4,0.2-3.8-1.5-4-4.5c-0.2-3,1-4.9,3.4-5c1.8-0.1,2.8,0.6,3.4,2.2
  L44.7,11.8z"/>
<path class="st1" d="M42.8,9c-2.4,0.2-3.7,2-3.5,5.1c0.1,1.7,0.6,3,1.5,3.8c0.7,0.6,1.6,0.9,2.6,0.8c1.8-0.1,2.9-1.1,3.4-2.7l0-0.1
  l-1.8-0.4l0,0.1c-0.4,1.1-0.9,1.4-1.6,1.4c-0.5,0-0.9-0.1-1.2-0.4c-0.5-0.5-0.8-1.4-0.9-2.7c-0.1-1.3,0.1-2.3,0.6-2.8
  c0.3-0.3,0.6-0.5,1-0.5c0.8,0,1.4,0.4,1.7,1.2l0,0.1l1.7-0.6l0-0.1C45.8,9.6,44.6,8.9,42.8,9 M41,17.8c-0.8-0.7-1.3-2-1.5-3.7
  c-0.2-3,1-4.8,3.3-4.9c1.7-0.1,2.7,0.5,3.3,2.1c-0.2,0-1.3,0.4-1.4,0.4c-0.4-0.8-1-1.3-1.8-1.2c-0.5,0-0.8,0.2-1.1,0.6
  c-0.5,0.6-0.7,1.6-0.6,2.9c0.1,1.4,0.4,2.3,1,2.8c0.3,0.3,0.8,0.4,1.3,0.4c0.9-0.1,1.3-0.5,1.8-1.5c0.1,0,1.3,0.3,1.5,0.3
  c-0.4,1.5-1.5,2.4-3.2,2.5C42.5,18.6,41.7,18.3,41,17.8"/>
<path class="st1" d="M53.6,10.2l2.1,0.6l0,9.7L54,19.9l0.1-2.1l-2.8-0.8l-1.1,1.8l-1.7-0.5L53.6,10.2z M52,15.8l2.1,0.6l0.1-4.2l0,0
  L52,15.8z"/>
<path class="st1" d="M53.5,10.1l-5.2,8.3l1.9,0.5c0,0,1-1.7,1.1-1.8c0.1,0,2.6,0.7,2.7,0.8c0,0.1-0.1,2.1-0.1,2.1l1.9,0.5l0-9.8
  L53.5,10.1L53.5,10.1z M53.6,10.3c0.1,0,1.9,0.5,2,0.6c0,0.1,0,9.2,0,9.5c-0.2,0-1.4-0.4-1.5-0.4c0-0.1,0-2.1,0-2.1L51.2,17
  c0,0-1,1.7-1.1,1.8c-0.1,0-1.3-0.4-1.5-0.4C48.7,18.1,53.6,10.4,53.6,10.3"/>
<path class="st1" d="M54.1,12.1l-2.2,3.7l2.3,0.7l0.1-4.6L54.1,12.1z M54.1,12.5c0,0.5-0.1,3.6-0.1,3.8c-0.2-0.1-1.7-0.5-1.9-0.5
  C52.3,15.5,53.8,12.9,54.1,12.5"/>
<path class="st1" d="M65.6,19.2c0.2-1,0-1.6-0.7-2.2c-1.1-0.8-2.4-0.1-3.6,1.5c-1.2,1.6-1.3,3-0.3,3.7c0.9,0.7,2,0.5,2.7-0.3l-1.4-1
  l0.9-1.2l2.8,2.1l-2.8,3.8l-1-0.8l0.6-0.8c-1.1,0.2-1.8,0-2.6-0.6c-2-1.5-1.8-3.8-0.2-5.9c1.4-1.9,3.7-3.4,6-1.6
  c1.5,1.1,1.7,2.6,1.3,3.9L65.6,19.2z"/>
<path class="st1" d="M63.2,15c-1.2,0.2-2.4,1-3.4,2.4c-1,1.3-1.4,2.6-1.2,3.8c0.1,0.9,0.6,1.7,1.4,2.3c0.8,0.6,1.5,0.8,2.4,0.6
  c-0.1,0.2-0.5,0.7-0.5,0.7l1.2,0.9l2.9-3.9l-2.9-2.2l-1,1.3c0,0,1.3,0.9,1.4,1c-0.7,0.7-1.6,0.9-2.5,0.2c-0.9-0.7-0.8-2.1,0.3-3.6
  c0.7-1,2.2-2.5,3.5-1.5c0.7,0.5,0.9,1.1,0.7,2.1l0,0.1l1.7,0.7l0-0.1c0.5-1.5,0.1-3-1.3-4C65.1,15.2,64.2,14.9,63.2,15 M60.1,23.4
  c-0.8-0.6-1.2-1.3-1.4-2.2c-0.2-1.1,0.2-2.4,1.2-3.6c1-1.3,2.2-2.2,3.3-2.3c0.9-0.1,1.8,0.1,2.6,0.7c1,0.7,1.5,1.6,1.5,2.6
  c0,0.4-0.1,0.7-0.2,1.1c-0.2-0.1-1.3-0.5-1.4-0.6c0-0.2,0.1-0.4,0.1-0.6c0-0.7-0.3-1.1-0.8-1.6c-1.1-0.8-2.4-0.2-3.7,1.6
  c-1.2,1.6-1.3,3.1-0.3,3.9c0.9,0.7,2.1,0.6,2.8-0.3l0.1-0.1c0,0-1.3-1-1.4-1c0.1-0.1,0.7-0.9,0.8-1c0.1,0.1,2.5,1.9,2.6,2
  c-0.1,0.1-2.6,3.5-2.7,3.6c-0.1-0.1-0.8-0.6-0.9-0.7c0.1-0.1,0.7-0.9,0.7-0.9l-0.2,0C61.6,24.1,60.9,24,60.1,23.4"/>
<path class="st1" d="M66.6,30.5c-1.3-2.1-0.6-4.2,2-5.8c2.6-1.6,4.8-1.4,6.1,0.8c1.3,2.1,0.6,4.2-2,5.8C70.2,32.9,68,32.7,66.6,30.5
   M73.5,26.3c-0.8-1.2-2.1-1.2-3.9-0.1c-1.9,1.1-2.4,2.3-1.7,3.5c0.8,1.2,2.1,1.2,3.9,0.1C73.6,28.7,74.2,27.5,73.5,26.3"/>
<path class="st1" d="M68.6,24.6c-2.7,1.6-3.4,3.8-2,5.9c1.3,2.2,3.6,2.5,6.2,0.8c1.5-0.9,2.3-1.9,2.6-3.1c0.2-0.9,0-1.9-0.6-2.9
  c-0.6-1-1.4-1.6-2.3-1.8C71.3,23.4,70,23.7,68.6,24.6 M66.1,28.5c0-1.3,0.9-2.6,2.6-3.7c1.4-0.9,2.7-1.2,3.8-0.9
  c0.9,0.2,1.6,0.8,2.2,1.7c0.6,0.9,0.8,1.8,0.6,2.7c-0.3,1.1-1.1,2.1-2.5,3c-2.6,1.6-4.7,1.3-6-0.8C66.3,29.8,66.1,29.1,66.1,28.5"/>
<path class="st1" d="M69.5,26.1c-1.2,0.7-1.8,1.4-2,2.1c-0.1,0.5,0,1,0.3,1.5c0.8,1.3,2.1,1.3,4,0.1c1.2-0.7,1.8-1.4,2-2.2
  c0-0.1,0-0.3,0-0.4c0-0.4-0.1-0.7-0.3-1.1C72.8,25,71.4,24.9,69.5,26.1 M68,29.7c-0.3-0.5-0.4-0.9-0.3-1.4c0.2-0.7,0.8-1.4,1.9-2
  c1.8-1.1,3-1.1,3.8,0c0.3,0.5,0.4,0.9,0.3,1.3c-0.2,0.7-0.8,1.4-1.9,2.1C69.9,30.9,68.7,30.8,68,29.7"/>
<path class="st1" d="M10.4,42.9l8.7-0.5l0.2,3.2c0.1,1.9-0.6,3.1-2.4,3.2c-1.8,0.1-2.7-1.1-2.8-2.9L14,44.4l-3.5,0.2L10.4,42.9z
   M15.4,44.3l0.1,1.3c0.1,1.3,0.6,1.6,1.3,1.5c0.8,0,1.2-0.4,1.2-1.7l-0.1-1.3L15.4,44.3z"/>
<path class="st1" d="M19.1,42.3l-8.8,0.5l0.1,1.9c0,0,3.3-0.2,3.5-0.2c0,0.2,0.1,1.4,0.1,1.4c0.1,2.1,1.1,3.1,2.9,3
  c1.8-0.1,2.6-1.2,2.5-3.3l-0.2-3.3H19.1z M19,42.5c0,0.2,0.2,3.1,0.2,3.1c0,0.1,0,0.2,0,0.3c0,1.3-0.5,2.7-2.4,2.8
  c-2.1,0.1-2.6-1.5-2.7-2.9l-0.1-1.6c0,0-3.4,0.2-3.5,0.2c0-0.1-0.1-1.3-0.1-1.5C10.7,43,18.9,42.5,19,42.5"/>
<path class="st1" d="M17.8,44.1l-2.6,0.1l0.1,1.4c0.1,1.2,0.5,1.7,1.4,1.6c0.9-0.1,1.3-0.6,1.2-1.8L17.8,44.1L17.8,44.1z M17.8,44.3
  c0,0.2,0.1,1.2,0.1,1.2c0,0.1,0,0.2,0,0.2c0,1.1-0.5,1.3-1.1,1.4c-0.6,0-1.2-0.1-1.2-1.5c0,0-0.1-1-0.1-1.2
  C15.6,44.4,17.6,44.3,17.8,44.3"/>
<path class="st1" d="M21.2,54l0.5,1.6l-5.2,1.8c-2.4,0.8-3.7-0.4-4.3-2.1c-0.6-1.7-0.3-3.4,2.1-4.3l5.2-1.8l0.5,1.6l-5.2,1.8
  c-1.3,0.5-1.6,1.1-1.3,2.2c0.4,1.1,1,1.4,2.4,1L21.2,54z"/>
<path class="st1" d="M19.5,49.1l-5.2,1.8c-2.9,1-2.6,3.2-2.2,4.4c0.4,1,0.9,1.8,1.7,2.1c0.7,0.4,1.7,0.4,2.7,0l5.3-1.8l-0.6-1.8
  l-5.3,1.9c-1.2,0.4-1.9,0.2-2.2-0.9c-0.4-1.1,0-1.7,1.2-2.1l5.3-1.8L19.5,49.1L19.5,49.1z M13.9,57.3c-0.7-0.3-1.3-1-1.6-2
  c-0.1-0.4-0.3-0.9-0.3-1.4c0-1.1,0.5-2.2,2.3-2.8c0,0,4.9-1.7,5.1-1.8c0.1,0.1,0.4,1.3,0.5,1.4c-0.2,0.1-5.1,1.8-5.1,1.8
  c-1,0.3-1.5,0.8-1.5,1.5c0,0.2,0,0.5,0.2,0.8c0.4,1.2,1.2,1.5,2.5,1c0,0,4.5-1.6,5.1-1.8c0.1,0.1,0.4,1.3,0.5,1.4
  c-0.2,0.1-5.1,1.8-5.1,1.8C15.5,57.6,14.7,57.6,13.9,57.3"/>
<path class="st1" d="M22.3,56.5l1.9,2.6c1,1.4,1.2,2.7,0,3.7c-0.7,0.5-1.5,0.6-2.4,0.1c0.3,1.2,0.1,1.8-1,2.6
  c-1.1,0.8-2.4,0.6-3.7-1.2l-1.9-2.6L22.3,56.5z M17.2,62.2l1,1.3c0.6,0.8,1.2,0.9,1.8,0.4c0.7-0.5,0.8-1.1,0.2-1.9l-1-1.4L17.2,62.2
  z M20.4,59.9l1,1.4c0.5,0.7,1.1,0.7,1.6,0.4c0.5-0.4,0.6-1,0.2-1.6l-1-1.4L20.4,59.9z"/>
<path class="st1" d="M22.2,56.4L15,61.6l1.9,2.7c1.7,2.3,3.1,1.8,3.9,1.3c0.8-0.6,1.2-1.1,1.2-1.8c0-0.2,0-0.4-0.1-0.7
  c0.8,0.4,1.6,0.4,2.3-0.2c1.2-1,1.2-2.2,0-3.8L22.2,56.4L22.2,56.4z M22.3,56.6c0.1,0.1,1.8,2.6,1.8,2.6c0.5,0.8,0.8,1.4,0.8,2
  c0,0.6-0.3,1.1-0.8,1.5c-0.8,0.5-1.5,0.6-2.3,0.1l-0.2-0.1l0.1,0.2c0.3,1.2,0.1,1.8-0.9,2.5c-1.2,0.8-2.5,0.4-3.6-1.2
  c0,0-1.5-2.1-1.8-2.5C15.4,61.5,22.1,56.7,22.3,56.6"/>
<path class="st1" d="M19.3,60.6l-2.1,1.5l1,1.4c0.3,0.4,0.6,0.7,1,0.7c0.3,0,0.7-0.1,1-0.3c0.4-0.3,0.6-0.5,0.6-0.9
  c0.1-0.3-0.1-0.7-0.4-1.1L19.3,60.6L19.3,60.6z M19.3,60.8c0.1,0.1,0.9,1.3,0.9,1.3c0.2,0.3,0.3,0.6,0.3,0.9c0,0,0,0.1,0,0.1
  c0,0.3-0.2,0.5-0.5,0.7c-0.3,0.2-0.6,0.3-0.9,0.3c-0.3,0-0.6-0.3-0.8-0.6c0,0-0.8-1.2-0.9-1.3C17.5,62.1,19.2,60.9,19.3,60.8"/>
<path class="st1" d="M22.1,58.5l-1.8,1.3l1,1.4c0.5,0.7,1.1,0.8,1.7,0.4c0.6-0.4,0.7-1.1,0.2-1.7L22.1,58.5L22.1,58.5z M22.1,58.8
  c0.1,0.1,0.9,1.3,0.9,1.3c0.2,0.2,0.3,0.5,0.3,0.7c0,0.3-0.1,0.5-0.4,0.7c-0.5,0.4-1,0.2-1.4-0.3c0,0-0.7-1-0.9-1.3
  C20.7,59.8,22,58.8,22.1,58.8"/>
<polygon class="st1" points="21.3,69.1 26.8,62.4 28.1,63.4 23.5,69.1 26.4,71.5 25.5,72.6 "/>
<path class="st1" d="M26.7,62.3l-5.6,6.8l4.4,3.6l1-1.2c0,0-2.8-2.3-2.9-2.4c0.1-0.1,4.7-5.7,4.7-5.7L26.7,62.3L26.7,62.3z
   M26.8,62.5c0.1,0.1,1,0.8,1.1,0.9c-0.1,0.1-4.7,5.7-4.7,5.7s2.8,2.3,2.9,2.4c-0.1,0.1-0.7,0.8-0.8,1c-0.1-0.1-4-3.2-4.1-3.4
  C21.5,69,26.7,62.6,26.8,62.5"/>
<polygon class="st1" points="27.5,73.7 31.7,66.1 33.2,66.9 28.9,74.5 "/>
<path class="st1" d="M31.7,66l-4.3,7.7l1.6,0.9l4.4-7.8L31.7,66L31.7,66z M31.8,66.2c0.1,0.1,1.2,0.6,1.3,0.7
  c-0.1,0.2-4.1,7.3-4.2,7.5c-0.1-0.1-1.2-0.7-1.3-0.7C27.7,73.5,31.7,66.3,31.8,66.2"/>
<path class="st1" d="M38.4,71.6c0-0.8-0.3-1.4-1.1-1.7c-1.1-0.3-2,0.5-2.6,2.4c-0.6,2-0.3,3.1,0.9,3.5c0.7,0.2,1.2,0.1,2-0.7
  l1.4,0.9c-0.9,1.3-2.3,1.7-3.8,1.2c-2.1-0.6-2.9-2.6-2-5.3c0.8-2.7,2.5-3.9,4.7-3.3c1.6,0.5,2.3,1.5,2.2,3.1L38.4,71.6z"/>
<path class="st1" d="M35.2,68.7c-1,0.5-1.8,1.6-2.2,3.2c-0.5,1.5-0.5,2.9,0.1,3.9c0.4,0.8,1.1,1.3,2,1.6c1.6,0.5,2.9,0,3.9-1.3
  l0.1-0.1L37.5,75L37.4,75c-0.8,0.9-1.3,0.9-1.9,0.7c-0.4-0.1-0.7-0.4-0.9-0.7c-0.3-0.6-0.3-1.5,0.1-2.7c0.4-1.2,0.9-2,1.5-2.3
  c0.3-0.2,0.7-0.2,1-0.1c0.7,0.2,1.1,0.8,1.1,1.6v0.1l1.7,0.1v-0.1c0.1-1.6-0.7-2.7-2.3-3.2C36.8,68.2,35.9,68.3,35.2,68.7
   M35.1,77.1c-0.9-0.3-1.5-0.8-1.9-1.5c-0.5-0.9-0.5-2.2-0.1-3.7c0.5-1.5,1.2-2.6,2.1-3.1c0.7-0.4,1.5-0.4,2.4-0.2
  c1.5,0.5,2.2,1.4,2.2,2.8v0.1c-0.2,0-1.3-0.1-1.4-0.1c0-0.8-0.5-1.5-1.2-1.7c-0.4-0.1-0.8-0.1-1.2,0.1c-0.6,0.3-1.2,1.2-1.5,2.4
  c-0.4,1.2-0.4,2.2-0.1,2.8c0.2,0.4,0.5,0.7,1,0.8c0.8,0.2,1.3,0.1,2-0.7c0.1,0.1,1.1,0.6,1.2,0.7C37.8,77.1,36.6,77.5,35.1,77.1"/>
<polygon class="st1" points="45.2,78.6 44.6,69.9 46.2,69.7 46.7,77.1 50.5,76.8 50.6,78.2 "/>
<path class="st1" d="M46.2,69.7l-1.8,0.1l0.6,8.9l5.6-0.4l-0.1-1.6c0,0-3.6,0.3-3.8,0.3C46.8,76.8,46.3,69.6,46.2,69.7L46.2,69.7z
   M46.1,69.9c0,0.2,0.5,7.3,0.5,7.3s3.6-0.2,3.8-0.3c0,0.2,0.1,1.1,0.1,1.2c-0.2,0-5.1,0.4-5.3,0.4c0-0.2-0.6-8.4-0.6-8.6
  C44.8,70,46,69.9,46.1,69.9"/>
<polygon class="st1" points="53,77.6 50.8,69.1 52.4,68.7 54.6,77.2 "/>
<path class="st1" d="M52.4,68.6l-1.7,0.4l2.2,8.6l1.8-0.5L52.4,68.6L52.4,68.6z M52.4,68.8c0,0.2,2.1,8.1,2.2,8.3
  c-0.1,0-1.3,0.3-1.5,0.4c0-0.2-2.1-8.1-2.2-8.3C51.1,69.2,52.2,68.9,52.4,68.8"/>
<path class="st1" d="M54.2,68.3l2.9-1.5c1.5-0.8,2.8-0.8,3.6,0.5c0.4,0.8,0.4,1.6-0.3,2.4c1.2-0.1,1.8,0.2,2.4,1.4
  c0.6,1.2,0.2,2.5-1.8,3.5l-2.9,1.5L54.2,68.3z M57.3,70.6l1.5-0.8c0.7-0.4,0.8-1,0.6-1.5c-0.3-0.5-0.9-0.8-1.6-0.4l-1.5,0.8
  L57.3,70.6z M59.1,74.1l1.5-0.8c0.9-0.5,1-1,0.6-1.8c-0.4-0.7-1-0.9-1.8-0.5l-1.5,0.8L59.1,74.1z"/>
<path class="st1" d="M57.1,66.7l-3,1.5l4.1,7.9l2.9-1.5c1.1-0.6,1.8-1.2,2-2c0.2-0.5,0.1-1.1-0.2-1.7c-0.6-1.1-1.2-1.5-2.3-1.4
  c0.3-0.4,0.5-0.8,0.5-1.2c0-0.3-0.1-0.7-0.3-1.1C60,66,58.8,65.8,57.1,66.7 M57.1,66.9c1.6-0.8,2.8-0.7,3.5,0.5
  c0.4,0.8,0.3,1.6-0.3,2.3l-0.2,0.2l0.2,0c1.2-0.1,1.7,0.2,2.3,1.3c0.2,0.3,0.3,0.7,0.3,1c0,0.2,0,0.4-0.1,0.6
  c-0.2,0.7-0.9,1.3-1.9,1.9c0,0-2.3,1.2-2.8,1.4c-0.1-0.2-3.9-7.4-3.9-7.6C54.5,68.3,57.1,66.9,57.1,66.9"/>
<path class="st1" d="M57.8,67.9l-1.6,0.8l1.1,2.1l1.6-0.8c0.7-0.4,0.9-1,0.6-1.6C59.1,67.7,58.5,67.5,57.8,67.9 M57.9,68.1
  c0.6-0.3,1.1-0.2,1.4,0.4c0.1,0.2,0.1,0.3,0.1,0.5c0,0.4-0.2,0.7-0.7,0.9c0,0-1.2,0.7-1.4,0.7c-0.1-0.1-0.8-1.6-0.9-1.7
  C56.6,68.7,57.9,68.1,57.9,68.1"/>
<path class="st1" d="M59.4,71l-1.6,0.8l1.2,2.4l1.6-0.8c0.5-0.2,0.7-0.5,0.9-0.8c0.1-0.3,0-0.7-0.2-1c-0.2-0.4-0.5-0.6-0.8-0.7
  C60.2,70.7,59.8,70.8,59.4,71 M59.5,71.2c0.4-0.2,0.8-0.3,1-0.2c0.3,0.1,0.5,0.3,0.7,0.6c0.1,0.3,0.2,0.5,0.2,0.7c0,0.1,0,0.2,0,0.2
  c-0.1,0.3-0.3,0.5-0.8,0.8c0,0-1.1,0.6-1.4,0.7c-0.1-0.1-1-1.9-1.1-2.1C58.2,71.8,59.5,71.2,59.5,71.2"/>
<path class="st1" d="M66.6,71.2l-6-6.4l2.5-2.4c1.4-1.4,2.8-1.1,3.8,0c0.8,0.8,1,1.8,0.4,2.7l4.1,1.5l-1.3,1.3l-3.7-1.5l-1,1
  l2.4,2.6L66.6,71.2z M64.4,66.5l0.9-0.9c0.9-0.9,1-1.5,0.4-2.1c-0.6-0.6-1.2-0.6-1.9,0.1l-1.1,1L64.4,66.5z"/>
<path class="st1" d="M63.1,62.4l-2.6,2.5l6.1,6.5l1.3-1.3c0,0-2.3-2.5-2.4-2.6c0.1-0.1,0.9-0.8,0.9-0.9c0.1,0,3.6,1.5,3.6,1.5
  l1.5-1.4c0,0-4-1.5-4.1-1.5c0.2-0.3,0.3-0.7,0.3-1.1c0-0.6-0.2-1.2-0.7-1.7C65.8,61.1,64.4,61.1,63.1,62.4 M63.2,62.5
  c1.7-1.6,3-0.7,3.7,0c0.5,0.5,0.7,1,0.7,1.5c0,0.4-0.1,0.7-0.3,1.1l0,0.1c0,0,3.8,1.4,4,1.5c-0.2,0.2-1.1,1.1-1.2,1.1
  c-0.1,0-3.7-1.5-3.7-1.5l-1.2,1.1c0,0,2.3,2.5,2.5,2.6c-0.1,0.1-1,0.9-1.1,1c-0.1-0.1-5.8-6.1-5.9-6.2
  C60.8,64.7,63.2,62.5,63.2,62.5"/>
<path class="st1" d="M63.8,63.6l-1.2,1.1l1.8,1.9l1-0.9c0.5-0.5,0.8-0.9,0.8-1.3c0-0.3-0.1-0.6-0.4-0.9c-0.3-0.3-0.6-0.4-0.9-0.4
  C64.5,63,64.2,63.2,63.8,63.6 M63.9,63.7c0.3-0.3,0.7-0.5,1-0.5c0.3,0,0.5,0.1,0.8,0.4c0.2,0.3,0.4,0.5,0.4,0.7v0
  c0,0.3-0.3,0.7-0.8,1.2c0,0-0.6,0.6-0.8,0.8c-0.1-0.1-1.5-1.5-1.6-1.7C63,64.6,63.9,63.7,63.9,63.7"/>
<path class="st1" d="M66.6,58.3l1.1-1.8l8.8,2.5l-0.9,1.4l-1.9-0.6l-1.4,2.3l1.3,1.4l-0.9,1.4L66.6,58.3z M71.3,61.2l1.1-1.7
  l-3.8-1.2l0,0L71.3,61.2z"/>
<path class="st1" d="M67.6,56.5l-1.1,1.8l6.3,6.9l1-1.6c0,0-1.2-1.4-1.3-1.4c0.1-0.1,1.3-2.1,1.4-2.2c0.1,0,1.9,0.6,1.9,0.6l1-1.6
  L67.6,56.5L67.6,56.5z M67.7,56.7c0.1,0,8.4,2.4,8.6,2.4c-0.1,0.2-0.7,1.1-0.8,1.2c-0.1,0-1.9-0.6-1.9-0.6l-1.5,2.5
  c0,0,1.2,1.3,1.3,1.4c-0.1,0.1-0.7,1.1-0.8,1.3c-0.2-0.2-5.9-6.5-6-6.6C66.7,58.2,67.6,56.8,67.7,56.7"/>
<path class="st1" d="M68.5,58.4l2.8,3l1.2-1.9l-4.2-1.3L68.5,58.4z M68.8,58.5c0.5,0.1,3.2,1,3.4,1c-0.1,0.2-0.8,1.4-0.9,1.5
  C71.1,60.9,69.2,58.8,68.8,58.5"/>
<path class="st1" d="M77.5,56.5l-8.4-2.4l1-3.4c0.5-1.9,1.9-2.4,3.3-2c1,0.3,1.7,1.1,1.7,2.2l4.3-0.8l-0.5,1.8l-3.9,0.6l-0.4,1.4
  l3.4,1L77.5,56.5z M73.2,53.5l0.3-1.2c0.4-1.3,0.1-1.8-0.7-2c-0.8-0.2-1.3,0.1-1.6,1l-0.4,1.5L73.2,53.5z"/>
<path class="st1" d="M70,50.7l-1,3.4l8.6,2.5l0.5-1.8c0,0-3.2-0.9-3.4-1c0-0.2,0.3-1.2,0.4-1.3c0.1,0,3.9-0.6,3.9-0.6l0.6-2
  c0,0-4.1,0.7-4.3,0.8c0-1-0.7-1.8-1.8-2.1C71.7,48.2,70.5,49,70,50.7 M70.1,50.8c0.6-2.3,2.2-2.2,3.2-1.9c1.1,0.3,1.7,1.1,1.7,2.1
  V51c0,0,4-0.7,4.3-0.8c-0.1,0.2-0.4,1.5-0.5,1.6c-0.1,0-3.9,0.6-3.9,0.6L74.4,54c0,0,3.3,0.9,3.4,1c0,0.1-0.4,1.3-0.4,1.4
  c-0.2-0.1-8.1-2.3-8.2-2.4C69.2,53.9,70.1,50.8,70.1,50.8"/>
<path class="st1" d="M71.2,51.4l-0.4,1.6l2.5,0.7l0.4-1.3c0.2-0.7,0.2-1.2,0-1.5c-0.1-0.3-0.4-0.4-0.8-0.5
  C72,50.1,71.5,50.4,71.2,51.4 M71.4,51.4c0.2-0.8,0.7-1.2,1.5-1c0.3,0.1,0.6,0.2,0.7,0.5c0.1,0.1,0.1,0.3,0.1,0.5
  c0,0.2,0,0.5-0.2,0.9c0,0-0.2,0.8-0.3,1.1c-0.2,0-2-0.6-2.2-0.6C71,52.6,71.4,51.4,71.4,51.4"/>
<polygon class="st1" points="74.4,44.7 71,43.1 71,41.4 76.2,43.9 79.7,44 79.7,45.7 76.2,45.6 70.9,47.9 70.9,46.1 "/>
<path class="st1" d="M70.9,41.4l-0.1,1.8c0,0,2.9,1.4,3.3,1.5c-0.4,0.1-3.4,1.4-3.4,1.4L70.8,48c0,0,5.4-2.3,5.4-2.3
  c0,0,3.6,0.1,3.6,0.1l0.1-1.9c0,0-3.5-0.1-3.6-0.1c0,0-5.3-2.6-5.3-2.6V41.4z M71.1,41.5c0.3,0.1,5.1,2.5,5.1,2.5s3.2,0.1,3.4,0.1
  c0,0.2,0,1.3,0,1.5c-0.2,0-3.4-0.1-3.4-0.1s-5,2.1-5.2,2.2c0-0.2,0-1.4,0-1.5c0.1,0,3.6-1.5,3.6-1.5s-3.5-1.6-3.6-1.7
  C71.1,43,71.1,41.7,71.1,41.5"/>
<path class="st1" d="M45.1,21c-7.9,0-14.9,4-19,10.2c8.3,4.8,18.2,10.5,18.2,10.5l0.8,0.5l0.8-0.5c0.1-0.1,7.2-4.1,18.3-10.4
  C60.1,25.1,53.1,21,45.1,21"/>
</svg>
