<svg width="59" height="24" viewBox="0 0 59 24" fill="none" xmlns="http://www.w3.org/2000/svg">
<g clip-path="url(#clip0_397_1605)">
<path d="M54.0287 16.8098C53.8725 16.8098 53.7649 16.7015 53.7649 16.5458V8.80834H51.1365C50.9803 8.80834 50.8725 8.70051 50.8725 8.54457V7.47727C50.8725 7.32098 50.9803 7.21286 51.1365 7.21286H58.1328C58.2889 7.21286 58.3964 7.3211 58.3964 7.47727V8.54451C58.3964 8.70033 58.2889 8.80834 58.1328 8.80834H55.5046V16.5456C55.5046 16.7015 55.3965 16.8098 55.2408 16.8098H54.0287ZM33.895 12.9469L32.5153 8.98851L31.1232 12.9469H33.895ZM36.9551 16.4972C37.0154 16.6535 36.9192 16.8098 36.7512 16.8098H35.5034C35.3233 16.8098 35.2152 16.7261 35.155 16.5574L34.4473 14.5188H30.5717L29.8627 16.5574C29.8032 16.7262 29.6948 16.8098 29.5151 16.8098H28.3395C28.1833 16.8098 28.0751 16.6535 28.1352 16.4972L31.3871 7.45328C31.4473 7.28478 31.5553 7.21326 31.7349 7.21326H33.3429C33.5231 7.21326 33.6431 7.28484 33.7031 7.45328L36.9551 16.4972ZM46.2765 15.514C47.0441 15.514 47.5604 15.1428 47.9805 14.5067L46.0368 12.4191C45.2924 12.8393 44.8122 13.2586 44.8122 14.0986C44.8123 14.9264 45.484 15.514 46.2765 15.514ZM46.8164 8.48437C46.1926 8.48437 45.8326 8.88062 45.8326 9.40834C45.8326 9.81614 46.0481 10.1761 46.5403 10.704C47.3922 10.2119 47.7524 9.91213 47.7524 9.38446C47.7524 8.89224 47.4406 8.48437 46.8164 8.48437ZM52.1328 16.4739C52.2886 16.642 52.1928 16.8098 52.0003 16.8098H50.4763C50.2724 16.8098 50.1644 16.7616 50.0324 16.6055L49.1205 15.5983C48.5086 16.414 47.6559 17.0257 46.2402 17.0257C44.4883 17.0257 43.1079 15.9701 43.1079 14.1591C43.1079 12.7671 43.8523 12.0232 44.9805 11.3995C44.428 10.7638 44.1765 10.092 44.1765 9.5045C44.1765 8.01661 45.2204 6.99713 46.7921 6.99713C48.4002 6.99713 49.3844 7.94515 49.3844 9.34838C49.3844 10.548 48.5206 11.2191 47.6082 11.7233L48.9525 13.1753L49.7083 11.8553C49.8042 11.6996 49.9123 11.6394 50.104 11.6394H51.2678C51.4601 11.6394 51.5681 11.7717 51.4485 11.9755L50.1042 14.2783L52.1328 16.4739ZM40.1571 16.8098C40.3131 16.8098 40.4216 16.7015 40.4216 16.5458V8.80834H43.0492C43.2052 8.80834 43.3131 8.70051 43.3131 8.54457V7.47727C43.3131 7.32098 43.2052 7.21286 43.0492 7.21286H36.053C35.8968 7.21286 35.789 7.3211 35.789 7.47727V8.54451C35.789 8.70033 35.8968 8.80834 36.053 8.80834H38.6806V16.5456C38.6806 16.7015 38.7889 16.8098 38.9448 16.8098H40.1571Z" fill="black"/>
<path d="M4.64291 21.4769C6.67801 23.0523 9.23241 23.9989 12.0038 23.9989C15.0366 23.9989 17.8015 22.8729 19.9116 21.0245C19.9372 21.0019 19.9246 20.9869 19.8993 21.0019C18.9525 21.6343 16.2538 23.0147 12.0039 23.0147C8.31063 23.0147 5.97662 22.1907 4.65856 21.4549C4.63334 21.4425 4.624 21.4614 4.64291 21.4769ZM12.8186 22.0903C15.7726 22.0903 19.0186 21.285 20.96 19.691C21.4913 19.2567 21.9973 18.6787 22.4505 17.9018C22.7114 17.4548 22.9666 16.9238 23.1745 16.4018C23.1837 16.3763 23.168 16.364 23.1488 16.3926C21.3435 19.0494 16.1155 20.7066 10.7174 20.7066C6.90178 20.7066 2.79627 19.4864 1.18893 17.1566C1.17311 17.135 1.15729 17.1442 1.16692 17.169C2.66427 20.3517 7.20688 22.0903 12.8186 22.0903ZM9.59116 16.8104C3.44751 16.8104 0.550651 13.9489 0.0251648 11.9962C0.0186845 11.968 6.10352e-05 11.9741 6.10352e-05 11.9995C6.10352e-05 12.6569 0.0658562 13.5053 0.179057 14.0684C0.233059 14.3425 0.456132 14.7727 0.783182 15.1156C2.27084 16.6663 5.97978 18.8391 12.4031 18.8391C21.1545 18.8391 23.1555 15.9239 23.5641 14.9652C23.8563 14.2795 24.0077 13.0405 24.0077 11.9996C24.0077 11.7477 24.0014 11.5466 23.9919 11.349C23.9919 11.317 23.9733 11.3144 23.9669 11.3456C23.5296 13.6915 16.0525 16.8104 9.59116 16.8104ZM1.15729 6.85182C0.80525 7.55048 0.415032 8.72917 0.299029 9.33922C0.24818 9.6006 0.269839 9.72612 0.361497 9.92118C1.09785 11.4836 4.82249 13.9834 13.5106 13.9834C18.811 13.9834 22.9285 12.6812 23.5956 10.3048C23.7184 9.86735 23.725 9.40548 23.5672 8.78312C23.3909 8.08766 23.0607 7.27667 22.7812 6.7072C22.772 6.68864 22.7557 6.69138 22.759 6.71333C22.8628 9.83016 14.1713 11.8389 9.78586 11.8389C5.0357 11.8389 1.07275 9.94628 1.07275 7.55644C1.07275 7.32682 1.12027 7.09714 1.17959 6.85812C1.18554 6.83629 1.16686 6.83267 1.15729 6.85182ZM19.931 3.025C19.9815 3.10405 20.0066 3.18841 20.0066 3.30197C20.0066 4.6352 15.9264 6.99374 9.43108 6.99374C4.65856 6.99374 3.76504 5.22323 3.76504 4.09726C3.76504 3.69477 3.9194 3.28293 4.25935 2.86468C4.27792 2.83981 4.26215 2.83023 4.24073 2.84874C3.62072 3.37419 3.05104 3.96543 2.5513 4.60367C2.31253 4.90551 2.1643 5.1729 2.1643 5.3331C2.1643 7.66649 8.01499 9.35831 13.4856 9.35831C19.3145 9.35831 21.916 7.45538 21.916 5.78306C21.916 5.1854 21.6833 4.8365 21.0882 4.16008C20.7019 3.72005 20.3365 3.36175 19.9497 3.00906C19.931 2.99365 19.918 3.0062 19.931 3.025ZM18.1441 1.69206C16.3451 0.613731 14.2561 0.000244141 12.0039 0.000244141C9.73606 0.000244141 7.58408 0.635157 5.77866 1.74204C5.23711 2.07534 4.93231 2.34245 4.93231 2.68579C4.93231 3.69792 7.29761 4.78617 11.494 4.78617C15.6468 4.78617 18.8678 3.59417 18.8678 2.44678C18.8678 2.1729 18.6284 1.98129 18.1441 1.69206Z" fill="black"/>
</g>
<defs>
<clipPath id="clip0_397_1605">
<rect width="58.3963" height="24" fill="white"/>
</clipPath>
</defs>
</svg>
