<svg xmlns="http://www.w3.org/2000/svg" viewBox="0 0 213 213">
  <title>custom site</title>
  <g>
    <g>
      <rect class="background-fill" width="213" height="213" rx="10" ry="10"/>
    </g>
    <g>
      <path class="foreground-fill" d="M59.07,133.17a9.61,9.61,0,0,0,9.58,9.58h77a9.61,9.61,0,0,0,9.58-9.58v-50H59.07ZM75.39,94.41A1.92,1.92,0,0,1,77.3,92.5h60.55a1.92,1.92,0,0,1,1.92,1.92v3.09a1.92,1.92,0,0,1-1.92,1.92H77.3a1.92,1.92,0,0,1-1.92-1.92Zm0,14.25a1.92,1.92,0,0,1,1.92-1.92h42.17a1.92,1.92,0,0,1,1.92,1.92v3.1a1.92,1.92,0,0,1-1.92,1.91H77.3a1.92,1.92,0,0,1-1.92-1.91Zm0,14.25A1.92,1.92,0,0,1,77.3,121h27.88a1.92,1.92,0,0,1,1.92,1.92V126a1.92,1.92,0,0,1-1.92,1.92H77.3A1.92,1.92,0,0,1,75.39,126Z"/>
      <path class="foreground-fill" d="M145.6,67.5h-77a9.61,9.61,0,0,0-9.58,9.58v2.76h96.12V77.08A9.61,9.61,0,0,0,145.6,67.5Z"/>
    </g>
  </g>
</svg>
