<svg xmlns="http://www.w3.org/2000/svg" viewBox="0 0 213 213">
  <title>get it</title>
  <g>
    <g>
      <rect class="background-fill" width="213" height="213" rx="10" ry="10"/>
    </g>
    <g>
      <rect class="foreground-fill" x="59.71" y="145.57" width="93.57" height="5.14" rx="1.39" ry="1.39"/>
      <rect class="foreground-fill" x="54.17" y="152.97" width="104.67" height="5.14" rx="1.39" ry="1.39"/>
      <rect class="foreground-fill" x="112.15" y="97.39" width="12.67" height="45.92" rx="2.49" ry="2.49"/>
      <rect class="foreground-fill" x="88.17" y="97.39" width="12.67" height="45.92" rx="2.49" ry="2.49"/>
      <rect class="foreground-fill" x="64.18" y="97.39" width="12.67" height="45.92" rx="2.49" ry="2.49"/>
      <path class="foreground-fill" d="M57.09,86.59h98.82a1.14,1.14,0,0,0,.67-2.06L108.15,49.42a2.81,2.81,0,0,0-3.3,0L56.42,84.53a1.14,1.14,0,0,0,.67,2.06ZM106.5,60.45a9.74,9.74,0,1,1-9.74,9.74A9.74,9.74,0,0,1,106.5,60.45Z"/>
      <rect class="foreground-fill" x="60.64" y="89.43" width="19.77" height="5.69" rx="1.39" ry="1.39"/>
      <rect class="foreground-fill" x="84.62" y="89.43" width="19.77" height="5.69" rx="1.39" ry="1.39"/>
      <rect class="foreground-fill" x="108.61" y="89.43" width="19.77" height="5.69" rx="1.39" ry="1.39"/>
      <rect class="foreground-fill" x="132.59" y="89.43" width="19.77" height="5.69" rx="1.39" ry="1.39"/>
      <rect class="foreground-fill" x="136.14" y="97.38" width="12.67" height="45.93" rx="2.49" ry="2.49"/>
    </g>
  </g>
</svg>
