<svg xmlns="http://www.w3.org/2000/svg" viewBox="0 0 213 213">
  <title>own course 1</title>
  <g>
    <g>
      <rect class="background-fill" width="213" height="213" rx="10" ry="10"/>
    </g>
    <g id="icons">
      <path class="foreground-fill" d="M98.36,115.54a48.7,48.7,0,0,1,1.64,6.37,11.61,11.61,0,0,0,6.71-7.62c-2.08-.5-4.19-.89-6.29-1.28A4.9,4.9,0,0,1,98.36,115.54Z"/>
      <path class="foreground-fill" d="M96,109.22h-.1c-2.37.18-2.74,4.65,0,4.87a2.64,2.64,0,0,0,2.69-2.13C98.94,110.43,97.33,109.2,96,109.22Z"/>
      <path class="foreground-fill" d="M103.32,103.92c-1.27,1.63-2.62,3.2-3.95,4.77a4.6,4.6,0,0,1,1.38,2.73c2.11.31,4.23.58,6.3,1.06A10.25,10.25,0,0,0,103.32,103.92Z"/>
      <path class="foreground-fill" d="M93.81,115.32c-1.36,1.53-2.79,3-4.23,4.43a10,10,0,0,0,8.63,2.65c-.49-2.11-.94-4.23-1.32-6.36A4.37,4.37,0,0,1,93.81,115.32Z"/>
      <path class="foreground-fill" d="M109.62,68.52c2.56-.15,4-2.84,3.84-5.15-.2-2.84-3.62-4.26-6.07-3.49h0a4.28,4.28,0,0,0-2.61,4.2A4.71,4.71,0,0,0,109.62,68.52Z"/>
      <path class="foreground-fill" d="M96.87,107.28a5,5,0,0,1,1.15.37c1.3-1.61,2.62-3.21,3.85-4.86a11.93,11.93,0,0,0-6.34-2,10.81,10.81,0,0,0-1.2.12,51.12,51.12,0,0,1,1.24,6.3A3.66,3.66,0,0,1,96.87,107.28Z"/>
      <path class="foreground-fill" d="M92,112.36c-2-.28-4-.6-6-1a12.87,12.87,0,0,0,2.34,6.89c1.4-1.44,2.94-2.73,4.42-4.09A4.9,4.9,0,0,1,92,112.36Z"/>
      <path class="foreground-fill" d="M79.77,89.45c-1.75-.94-3.87.53-4.38,2.24A3.06,3.06,0,0,0,77.06,95a3.27,3.27,0,0,0,4.48-1.63A3.33,3.33,0,0,0,79.77,89.45Z"/>
      <path class="foreground-fill" d="M94,107.73c-.46-2.11-.87-4.25-1.49-6.32a10.37,10.37,0,0,0-6.51,8c2,.52,4,1,6,1.35A4.38,4.38,0,0,1,94,107.73Z"/>
      <path class="foreground-fill" d="M92.62,77.07c-.37-1-2.26-.61-2.15.65.06.63.77.93,1.31.89.71,0,1-.95.85-1.53Z"/>
      <path class="foreground-fill" d="M108.41,85.21h0c-1.05.37-.61,2.26.65,2.15.63-.06.93-.77.89-1.31C109.9,85.35,109,85,108.41,85.21Z"/>
      <path class="foreground-fill" d="M118.62,68.54c-.37-1-2.26-.61-2.15.65.06.63.77.93,1.31.89.71,0,1-.94.85-1.53Z"/>
      <path class="foreground-fill" d="M112.89,73.36c-2.84.2-4.26,3.62-3.49,6.07h0a4.28,4.28,0,0,0,4.2,2.61A4.71,4.71,0,0,0,118,77.2C117.89,74.64,115.2,73.2,112.89,73.36Z"/>
      <path class="foreground-fill" d="M100.52,61.37c.63-.06.93-.77.89-1.31,0-.71-.95-1-1.53-.85h0C98.81,59.58,99.26,61.48,100.52,61.37Z"/>
      <path class="foreground-fill" d="M161.49,103.44,149.78,74.88c-7.23-18.77-23.24-33.21-44.21-33.21a46,46,0,0,0-46,46c0,19.82,30.1,49.35,30.1,62.75h0v7.35a3,3,0,0,0,2.95,2.95h34.34a3,3,0,0,0,2.95-2.95V143a3,3,0,0,1,2.95-2.95h14.46a3,3,0,0,0,2.95-2.95V108.48a3,3,0,0,1,2.95-2.95h6.92a1.52,1.52,0,0,0,1.41-2.1Zm-80.75-3.39-.62.13-.63.13-.05.2-.33,1.2a.17.17,0,0,1-.17.13l-1.62-.06h0a.15.15,0,0,1-.14-.13l-.23-1.22,0-.21-.61-.18-.61-.18-.14.15-.85.91a.17.17,0,0,1-.21,0l-1.4-.81a.17.17,0,0,1-.08-.19l.36-1.19.06-.2L73,98.11l-.46-.44-.21.07-1.18.41a.17.17,0,0,1-.19-.08l-.86-1.37a.17.17,0,0,1,0-.21l.87-.89.14-.14-.21-.61-.2-.59-.22,0-1.23-.18a.17.17,0,0,1-.13-.17L69,92.27a.17.17,0,0,1,.13-.16l1.36-.44a.7.7,0,0,0,0-.15l.08-.5.1-.61-1.15-.84a.18.18,0,0,1-.06-.23l.63-1.49a.17.17,0,0,1,.19-.08l1.41.25.37-.49.31-.41a1,1,0,0,0,.08-.13l-.63-1.28a.17.17,0,0,1,0-.2l1.25-1a.18.18,0,0,1,.24,0l1.13.87.56-.27.46-.22.13-.07q0-.72,0-1.44a.17.17,0,0,1,.13-.17l1.58-.32a.17.17,0,0,1,.19.08l.52,1.13.09.2.63,0,.64,0,.1-.18.61-1.09a.17.17,0,0,1,.19-.08l1.55.45a.17.17,0,0,1,.13.17c0,.42,0,.83-.07,1.24,0,.07,0,.14,0,.21l.55.32.55.32.18-.12,1-.68a.17.17,0,0,1,.2,0L85.66,86a.17.17,0,0,1,0,.21l-.64,1.07-.11.18.34.54.34.53.22,0,1.24-.12a.17.17,0,0,1,.16.13l.51,1.53a.17.17,0,0,1-.08.19L86.46,91a.86.86,0,0,0,0,.15c0,.17,0,.34,0,.51l.05.62,1.32.54a.18.18,0,0,1,.12.21l-.26,1.59a.17.17,0,0,1-.17.13l-1.42.1a1.07,1.07,0,0,0-.07.14l-.2.47-.24.57.92,1.1a.17.17,0,0,1,0,.21l-1,1.29a.18.18,0,0,1-.23.06l-1.31-.58-.48.39-.39.32-.11.1.31,1.4a.17.17,0,0,1-.08.19l-1.46.69a.17.17,0,0,1-.2,0l-.78-1-.14-.17Zm30.72,12.13a.29.29,0,0,1,.23.28l-.1,1.07a.3.3,0,0,1-.29.31h-1.25l-.1.56,1.13.41a.3.3,0,0,1,.22.35l-.28,1a.3.3,0,0,1-.35.22l-1.21-.21-.19.53,1.06.62a.3.3,0,0,1,.13.4l-.45,1a.29.29,0,0,1-.33.15l-1.2-.44-.28.49,1,.81a.29.29,0,0,1,.06.35l-.61.88a.3.3,0,0,1-.4.12l-1.08-.63-.36.43.77.92a.3.3,0,0,1,0,.42l-.76.76a.3.3,0,0,1-.42,0l-.94-.79-.43.36.62,1.07a.3.3,0,0,1-.1.41l-.88.61a.29.29,0,0,1-.36,0l-.82-1-.49.28.43,1.18a.29.29,0,0,1-.13.34l-1,.45a.3.3,0,0,1-.41-.1l-.62-1.08-.53.19.21,1.19a.3.3,0,0,1-.2.37l-1,.28a.3.3,0,0,1-.37-.2L99,125.37l-.56.1c0,.41,0,.82,0,1.23a.3.3,0,0,1-.28.3L97,127.1a.29.29,0,0,1-.29-.21l-.22-1.25H96l-.22,1.24a.29.29,0,0,1-.28.23L94.4,127a.3.3,0,0,1-.3-.29q0-.62,0-1.25l-.56-.1-.41,1.13a.3.3,0,0,1-.35.22l-1-.28a.3.3,0,0,1-.22-.35l.22-1.21-.53-.19-.62,1.07a.3.3,0,0,1-.4.12l-1-.45a.29.29,0,0,1-.15-.33l.44-1.2-.49-.28-.81,1a.29.29,0,0,1-.35.06L87,124a.3.3,0,0,1-.12-.4l.63-1.08-.43-.36-.92.77a.3.3,0,0,1-.42,0L85,122.2a.3.3,0,0,1,0-.42l.79-.94-.36-.43-1.07.62a.3.3,0,0,1-.41-.1l-.61-.88a.29.29,0,0,1,0-.36l1-.82-.28-.49-1.18.43a.29.29,0,0,1-.33-.13l-.45-1a.3.3,0,0,1,.1-.41l1.08-.62-.19-.53-1.19.21a.3.3,0,0,1-.37-.2l-.28-1a.28.28,0,0,1,0-.25.29.29,0,0,1,.15-.11l1.15-.42-.1-.55H81.23a.3.3,0,0,1-.3-.28l-.09-1.07a.29.29,0,0,1,.21-.29l1.26-.22c0-.19,0-.38,0-.56l-1.24-.22a.29.29,0,0,1-.23-.28l.09-1.07a.3.3,0,0,1,.28-.3h1.25l.1-.56-1.13-.41a.3.3,0,0,1-.22-.35l.28-1a.3.3,0,0,1,.35-.22l1.21.22.19-.53L82.18,106a.3.3,0,0,1-.13-.4l.45-1a.29.29,0,0,1,.33-.15l1.2.44.28-.49-1-.81a.29.29,0,0,1-.06-.35l.62-.88a.3.3,0,0,1,.4-.12l1.08.63.36-.43-.77-.92a.3.3,0,0,1,0-.42l.76-.76a.3.3,0,0,1,.42,0l.94.79.43-.36-.62-1.07a.3.3,0,0,1,.1-.41l.88-.61a.29.29,0,0,1,.36,0l.82,1,.49-.28-.43-1.18a.29.29,0,0,1,.13-.34l1-.45a.3.3,0,0,1,.41.1l.62,1.08.53-.19-.21-1.19a.3.3,0,0,1,.2-.37l1-.28a.3.3,0,0,1,.37.2L93.58,98l.55-.1V96.63a.3.3,0,0,1,.29-.31l1.07-.09a.29.29,0,0,1,.29.21L96,97.7h.57l.22-1.23a.29.29,0,0,1,.28-.23l1.07.09a.3.3,0,0,1,.3.28q0,.63,0,1.25L99,98l.41-1.13a.3.3,0,0,1,.35-.22l1,.28a.3.3,0,0,1,.22.35l-.22,1.21.53.19.62-1.07a.3.3,0,0,1,.4-.12l1,.45a.29.29,0,0,1,.15.33l-.44,1.2.49.28.81-1a.29.29,0,0,1,.35-.06l.88.62a.3.3,0,0,1,.12.4L105,100.8l.43.36.92-.77a.3.3,0,0,1,.42,0l.76.76a.3.3,0,0,1,0,.42l-.79.94.36.43,1.07-.62a.3.3,0,0,1,.41.1l.61.88a.29.29,0,0,1,0,.36l-1,.82.28.49,1.18-.43a.29.29,0,0,1,.34.13l.45,1a.3.3,0,0,1-.1.41l-1.08.62.19.53,1.19-.21a.3.3,0,0,1,.37.2l.28,1a.3.3,0,0,1-.2.37L110,109l.1.55h1.23a.3.3,0,0,1,.31.28l.09,1.07a.29.29,0,0,1-.21.29l-1.26.22c0,.19,0,.38,0,.57Zm14-37.82a.42.42,0,0,1,.32.48c-.05.48-.11,1-.17,1.43a.41.41,0,0,1-.38.33l-1.55-.05-.14.71,1.45.55a.41.41,0,0,1,.22.45l-.4,1.38a.42.42,0,0,1-.48.32l-1.49-.3-.26.68,1.29.75a.42.42,0,0,1,.18.55l-.62,1.29a.42.42,0,0,1-.55.18l-1.37-.53-.37.63,1.18,1a.42.42,0,0,1,0,.58L121.55,86a.4.4,0,0,1-.49.09l-1.33-.78-.47.56,1,1.11a.42.42,0,0,1,0,.58l-1,1a.42.42,0,0,1-.58,0l-1.15-1-.55.47.78,1.29a.42.42,0,0,1-.12.57l-1.16.84a.4.4,0,0,1-.5,0l-1-1.19-.62.38.57,1.43a.4.4,0,0,1-.17.47l-1.29.64a.42.42,0,0,1-.57-.12L112.08,91l-.67.27.31,1.44a.42.42,0,0,1-.26.52l-1.37.42a.42.42,0,0,1-.52-.26L109,92l-.71.15q0,.75.07,1.51a.42.42,0,0,1-.39.44l-1.42.19a.41.41,0,0,1-.42-.28l-.33-1.52-.73,0-.18,1.54a.4.4,0,0,1-.38.33l-1.43,0a.42.42,0,0,1-.44-.38l-.07-1.52-.72-.09-.41,1.42a.42.42,0,0,1-.48.32l-1.41-.28a.42.42,0,0,1-.32-.48l.17-1.47-.7-.2-.66,1.37a.42.42,0,0,1-.55.18l-1.34-.51a.4.4,0,0,1-.22-.45l.43-1.49-.66-.32-.9,1.28a.4.4,0,0,1-.49.09l-1.24-.73a.42.42,0,0,1-.18-.55l.65-1.36L93,88.8l-1.05,1.07a.42.42,0,0,1-.58,0L90.26,89a.42.42,0,0,1,0-.58l.84-1.2-.52-.51-1.24.9a.4.4,0,0,1-.5,0l-.94-1.09a.42.42,0,0,1,0-.58l1.08-1.09-.43-.59-1.31.66a.42.42,0,0,1-.57-.12l-.74-1.23a.39.39,0,0,1,0-.35.41.41,0,0,1,.16-.22l1.21-.88-.32-.65-1.44.44a.42.42,0,0,1-.52-.26l-.53-1.33a.41.41,0,0,1,.17-.47L86,79.1l-.21-.7-1.53.2a.4.4,0,0,1-.41-.28l-.3-1.4a.42.42,0,0,1,.26-.52L85.21,76l-.1-.72-1.47-.05a.42.42,0,0,1-.43-.38q0-.72-.07-1.43a.42.42,0,0,1,.39-.43L85,72.74c0-.24,0-.48,0-.72l-1.49-.3a.42.42,0,0,1-.32-.48l.17-1.42a.41.41,0,0,1,.38-.33l1.55.05.14-.71L84,68.27a.41.41,0,0,1-.22-.45l.4-1.38a.42.42,0,0,1,.48-.32l1.49.3.26-.68L85.12,65a.42.42,0,0,1-.18-.55l.62-1.29a.42.42,0,0,1,.55-.18l1.37.53.37-.63-1.18-1a.42.42,0,0,1,0-.58l.83-1.17A.4.4,0,0,1,88,60l1.33.78.47-.56-1-1.11a.42.42,0,0,1,0-.58l1-1a.42.42,0,0,1,.58,0l1.15,1,.55-.47-.78-1.29a.42.42,0,0,1,.12-.57l1.16-.84a.41.41,0,0,1,.5,0l1,1.19.62-.38-.57-1.43a.4.4,0,0,1,.17-.47l1.28-.64a.42.42,0,0,1,.57.12L96.94,55l.67-.27-.31-1.44a.42.42,0,0,1,.26-.52l1.37-.42a.42.42,0,0,1,.52.26L100,54l.71-.15-.07-1.51a.42.42,0,0,1,.39-.43l1.42-.19a.41.41,0,0,1,.42.28l.33,1.52.73,0L104.1,52a.41.41,0,0,1,.38-.33l1.43,0a.42.42,0,0,1,.44.39l.07,1.52.72.08.41-1.42A.42.42,0,0,1,108,52l1.41.28a.42.42,0,0,1,.32.48l-.17,1.47.7.2.66-1.37a.42.42,0,0,1,.55-.18l1.34.51a.4.4,0,0,1,.22.45l-.43,1.49.66.32.9-1.28a.4.4,0,0,1,.49-.09l1.24.72a.42.42,0,0,1,.18.55l-.65,1.36.59.42,1.05-1.07a.42.42,0,0,1,.58,0l1.1.92a.42.42,0,0,1,0,.58l-.84,1.2.52.51,1.24-.9a.4.4,0,0,1,.5,0l.94,1.09a.42.42,0,0,1,0,.58l-1.08,1.09.43.59,1.31-.66a.42.42,0,0,1,.57.12l.74,1.23a.42.42,0,0,1-.12.57l-1.21.88.32.65,1.44-.44a.42.42,0,0,1,.52.26l.53,1.33a.41.41,0,0,1-.17.47l-1.4.69.21.7,1.53-.2a.41.41,0,0,1,.41.28l.3,1.4a.42.42,0,0,1-.26.52l-1.46.45.09.72,1.48,0a.42.42,0,0,1,.43.39l.07,1.43a.42.42,0,0,1-.39.43l-1.47.19c0,.24,0,.48,0,.72Z"/>
      <path class="foreground-fill" d="M103.57,70.71l-.1,0c-2.3.87-1.36,5.06,1.46,4.81,1.4-.12,2.13-1.65,2.05-2.89C106.87,71.05,104.92,70.29,103.57,70.71Z"/>
      <path class="foreground-fill" d="M99.82,68c-.15-2.56-2.84-4-5.15-3.84-2.84.2-4.26,3.62-3.49,6.07h0a4.28,4.28,0,0,0,4.2,2.61A4.71,4.71,0,0,0,99.82,68Z"/>
      <path class="foreground-fill" d="M98.18,78.1h0a4.29,4.29,0,0,0-2.61,4.2,4.71,4.71,0,0,0,4.85,4.44c2.56-.15,4-2.84,3.84-5.15C104,78.75,100.63,77.33,98.18,78.1Z"/>
    </g>
  </g>
</svg>
