<svg xmlns="http://www.w3.org/2000/svg" viewBox="0 0 213 213">
  <title>personalized</title>
  <g>
    <g>
      <rect class="background-fill" width="213" height="213" rx="10" ry="10"/>
    </g>
    <g>
      <rect class="foreground-fill" x="75.95" y="109.35" width="62.7" height="5.7" rx="2" ry="2"/>
      <rect class="foreground-fill" x="75.95" y="120.22" width="62.7" height="5.7" rx="2" ry="2"/>
      <path class="foreground-fill" d="M154,66.3H60.64a10,10,0,0,0-10,10V136a10,10,0,0,0,10,10H154a10,10,0,0,0,10-10V76.3A10,10,0,0,0,154,66.3ZM158,136a4.05,4.05,0,0,1-4,4H60.64a4.05,4.05,0,0,1-4-4V76.3a4.05,4.05,0,0,1,4-4H154a4.05,4.05,0,0,1,4,4Z"/>
      <path class="foreground-fill" d="M149.69,77.3H64.91a2,2,0,0,0-2,2V133a2,2,0,0,0,2,2h84.78a2,2,0,0,0,2-2V79.3A2,2,0,0,0,149.69,77.3Zm0,55.68H64.91V79.3h84.78Z"/>
      <ellipse class="foreground-fill" cx="107.3" cy="94.26" rx="16.42" ry="9.25"/>
    </g>
  </g>
</svg>
