<svg xmlns="http://www.w3.org/2000/svg" viewBox="0 0 213 213">
  <title>pricing 1</title>
  <g>
    <g>
      <rect class="background-fill" width="213" height="213" rx="10" ry="10"/>
    </g>
    <g>
      <path class="foreground-fill" d="M103.13,153.24V142.11c-7.85-.35-15.46-2.46-19.92-5l3.52-13.71a41.37,41.37,0,0,0,19.45,5.16c6.68,0,11.25-2.58,11.25-7.26,0-4.45-3.75-7.26-12.42-10.19C92.47,106.85,83.92,101,83.92,89.63c0-10.31,7.26-18.39,19.8-20.85V57.65H115.2V68c7.85.35,13.12,2,17,3.87l-3.4,13.24a38.85,38.85,0,0,0-16.87-4c-7.62,0-10.07,3.28-10.07,6.56,0,3.87,4.1,6.33,14.06,10.07,13.94,4.92,19.56,11.36,19.56,21.91s-7.38,19.33-20.85,21.67v11.95Z"/>
    </g>
  </g>
</svg>
